<?xml version="1.0" encoding="UTF-8"?>
<svg width="40px" height="26px" viewBox="0 0 40 26" version="1.1" xmlns="http://www.w3.org/2000/svg" xmlns:xlink="http://www.w3.org/1999/xlink">
    <title>alarm2</title>
    <g id="Page-1" stroke="none" stroke-width="1" fill="none" fill-rule="evenodd">
        <g id="Artboard" transform="translate(-68.000000, -5.000000)" fill="#2F3231">
            <path d="M81.8736137,26.3149799 L82.676217,24.4992013 L68,30.3702511 L71.4135091,22.3392791 L84.9125563,19.6520283 L84.0949897,21.7689244 L98.5215712,19.5524791 L98.5215712,15.8177721 L84.0949897,13.6013268 L84.9125563,15.7182228 L71.4135091,13.030972 L68,5 L82.676217,10.8710498 L81.8736137,9.05527119 L98.5215712,15.0450741 L100.710571,14.2484147 L100.710882,10.022537 L103.415364,10.0223758 C106.144464,11.488595 108,14.3701685 108,17.6851256 C108,21.0000826 106.144464,23.8816561 103.415364,25.3478753 L100.710882,25.3477141 L100.710571,21.1214147 L98.5215712,20.3251771 L81.8736137,26.3149799 Z" id="alarm2"></path>
        </g>
    </g>
</svg>