<?xml version="1.0" encoding="UTF-8"?>
<svg width="41px" height="26px" viewBox="0 0 41 26" version="1.1" xmlns="http://www.w3.org/2000/svg" xmlns:xlink="http://www.w3.org/1999/xlink">
    <title>stopwatch</title>
    <g id="Page-1" stroke="none" stroke-width="1" fill="none" fill-rule="evenodd">
        <g id="Artboard" transform="translate(-159.000000, -5.000000)" fill="#2F3231">
            <path d="M176.086289,12.3703997 L181.456707,15.1918892 L168.733151,21.7404814 L164.460765,30.3411792 L159.17062,26.5939178 L176.086289,12.3703997 Z M182.168653,5 C183.846777,5 185.207165,6.36038813 185.207165,8.03851192 C185.207165,9.71663572 183.846777,11.0770238 182.168653,11.0770238 C181.832363,11.0770238 181.508832,11.0223922 181.206452,10.9215198 L180.823,11.638 L182.571768,12.54632 L183.042512,12.4048192 C189.891465,10.3470819 194.307568,9.06410268 196.290819,8.55588164 L196.662555,8.46273233 C197.07543,8.36208928 197.336252,8.30986861 197.44502,8.30607033 C198.807665,8.25848572 199.950882,9.3245528 199.998467,10.6871978 C200.046052,12.0498428 198.979985,13.1930598 197.61734,13.2406444 C197.092417,13.2589751 192.358269,13.7481022 183.414897,14.7080258 L182.931761,14.7599006 L175.492136,10.947591 C171.115885,12.1739767 167.752022,13.0824106 165.400547,13.6728927 L164.912156,13.7945579 C163.020572,14.2617525 161.872784,14.4953498 161.468791,14.4953498 C160.105315,14.4953498 159,13.3900344 159,12.0265588 C159,10.6630832 160.105315,9.55776789 161.468791,9.55776789 C161.993693,9.55776789 166.41847,9.28947256 174.743123,8.75288191 L175.209616,8.72279529 L180.037,11.23 L180.414016,10.5195005 C179.682628,10.0012974 179.190388,9.16781174 179.1353,8.21704758 L179.130142,8.03851192 C179.130142,6.36038813 180.49053,5 182.168653,5 Z" id="stopwatch"></path>
        </g>
    </g>
</svg>