<?xml version="1.0" encoding="UTF-8"?>
<svg width="41px" height="26px" viewBox="0 0 41 26" version="1.1" xmlns="http://www.w3.org/2000/svg" xmlns:xlink="http://www.w3.org/1999/xlink">
    <title>alarm1</title>
    <g id="Page-1" stroke="none" stroke-width="1" fill="none" fill-rule="evenodd">
        <g id="Artboard" transform="translate(-16.000000, -5.000000)" fill="#2C2E30">
            <path d="M18.565,22.949 L18.565,30.196 L16,31.0419274 L16,23.2551846 L18.565,22.949 Z M23.825,22.323 L23.825,28.464 L21.259,29.309 L21.259,22.629 L23.825,22.323 Z M29.085,21.696 L29.085,26.733 L26.519,27.577 L26.519,22.002 L29.085,21.696 Z M34.344,21.07 L34.344,25.001 L31.779,25.846 L31.779,21.376 L34.344,21.07 Z M52.4330413,10.387985 C55.1516454,11.8483946 57,14.718826 57,18.0209637 C57,21.3231015 55.1516454,24.1935329 52.4331038,25.6540902 L49.7390488,25.6539424 L49.7381977,21.4428631 L47.5581977,20.6508135 L47.5581977,15.3911139 L49.7381977,14.5978631 L49.7390488,10.387985 L52.4330413,10.387985 Z M39.604,20.443 L39.604,23.269 L37.038,24.114 L37.038,20.749 L39.604,20.443 Z M44.864,19.817 L44.864,21.537 L42.298,22.382 L42.298,20.123 L44.864,19.817 Z M42.298,13.659 L44.864,14.504 L44.864,16.224 L42.298,15.918 L42.298,13.659 Z M37.038,11.927 L39.604,12.772 L39.604,15.598 L37.038,15.292 L37.038,11.927 Z M31.779,10.196 L34.344,11.04 L34.344,14.971 L31.779,14.666 L31.779,10.196 Z M26.519,8.464 L29.085,9.308 L29.085,14.345 L26.519,14.039 L26.519,8.464 Z M21.259,6.732 L23.825,7.577 L23.825,13.718 L21.259,13.412 L21.259,6.732 Z M16,5 L18.565,5.845 L18.565,13.092 L16,12.7867428 L16,5 Z" id="alarm1"></path>
        </g>
    </g>
</svg>