<?xml version="1.0" encoding="UTF-8"?>
<svg width="7px" height="21px" viewBox="0 0 7 21" version="1.1" xmlns="http://www.w3.org/2000/svg" xmlns:xlink="http://www.w3.org/1999/xlink">
    <title>colon</title>
    <g id="colon" stroke="none" stroke-width="1" fill="none" fill-rule="evenodd">
        <path d="M4.15609833,14.1919112 C5.41746239,14.1919112 6.44,15.2144488 6.44,16.4758128 L6.44,18.3480095 C6.44,19.6093736 5.41746239,20.6319112 4.15609833,20.6319112 L2.28390167,20.6319112 C1.02253761,20.6319112 5.08636618e-13,19.6093736 5.08482145e-13,18.3480095 L5.08482145e-13,16.4758128 C5.08327673e-13,15.2144488 1.02253761,14.1919112 2.28390167,14.1919112 L4.15609833,14.1919112 Z M4.15609833,-3.97459843e-13 C5.41746239,-3.97691552e-13 6.44,1.02253761 6.44,2.28390167 L6.44,4.15609833 C6.44,5.41746239 5.41746239,6.44 4.15609833,6.44 L2.28390167,6.44 C1.02253761,6.44 5.08636618e-13,5.41746239 5.08482145e-13,4.15609833 L5.08482145e-13,2.28390167 C5.08327673e-13,1.02253761 1.02253761,-3.97228134e-13 2.28390167,-3.97459843e-13 L4.15609833,-3.97459843e-13 Z" fill="#2C2E30"></path>
    </g>
</svg>