<?xml version="1.0" encoding="UTF-8"?>
<svg width="21px" height="10px" viewBox="0 0 21 10" version="1.1" xmlns="http://www.w3.org/2000/svg" xmlns:xlink="http://www.w3.org/1999/xlink">
    <title>pm</title>
    <g id="pm" stroke="none" stroke-width="1" fill="none" fill-rule="evenodd">
        <path d="M3.066,9.338 L3.066,6.636 L4.844,6.636 C5.95,6.608 6.244,6.608 6.328,6.594 C6.888,6.58 7.406,6.384 7.812,6.048 C8.358,5.6 8.596,4.802 8.596,3.388 C8.596,2.198 8.484,1.596 8.148,1.05 C7.756,0.434 7.028,0.056 6.132,0.014 C5.95082353,0.00576470588 5.87622145,0.00237370242 5.60043884,0.00097740688 L4.82028007,-1.31450406e-13 C4.75748097,-1.31450406e-13 4.69082353,-1.31450406e-13 4.62,-1.31450406e-13 L0.91,-1.31450406e-13 L0.91,9.338 L3.066,9.338 Z M5.01383053,4.77306816 L3.066,4.774 L3.066,1.778 L4.956,1.778 C5.558,1.778 5.656,1.792 5.88,1.876 C6.286,2.044 6.398,2.366 6.398,3.318 C6.398,4.54104 6.2173664,4.7576928 5.01383053,4.77306816 L5.01383053,4.77306816 Z M11.8863322,9.338 L11.8863322,5.418 C11.8863322,4.76 11.8723322,4.34 11.7743322,2.744 L11.7323322,1.862 L11.8023322,1.862 L12.0683322,2.716 C12.5723322,4.27 12.6843322,4.592 12.9363322,5.292 L14.4483322,9.338 L16.3383322,9.338 L17.8363322,5.278 L17.8750751,5.1687356 L17.8750751,5.1687356 L17.9493808,4.95685772 C18.1202076,4.4653218 18.2843322,3.95870588 18.6763322,2.702 L18.9423322,1.834 L19.0123322,1.834 L18.9703322,2.73 C18.8956655,4.16111111 18.8763075,4.57454321 18.8729275,5.17971193 L18.8723322,9.338 L21.0003322,9.338 L21.0003322,-1.31450406e-13 L17.5143322,-1.31450406e-13 L16.2823322,3.5 C16.0863322,4.046 15.9883322,4.382 15.6243322,5.656 L15.4143322,6.384 L15.3303322,6.384 C14.7843322,4.536 14.6443322,4.102 14.4343322,3.486 L13.1743322,-1.31450406e-13 L9.75833218,-1.31450406e-13 L9.75833218,9.338 L11.8863322,9.338 Z" fill="#2C2E30" fill-rule="nonzero"></path>
    </g>
</svg>