<?xml version="1.0" encoding="UTF-8"?>
<svg width="5px" height="9px" viewBox="0 0 5 9" version="1.1" xmlns="http://www.w3.org/2000/svg" xmlns:xlink="http://www.w3.org/1999/xlink">
    <title>weak_battery</title>
    <g id="weak_battery" stroke="none" stroke-width="1" fill="none" fill-rule="evenodd">
        <path d="M1.68056744,0.0682554041 L0.0441029548,4.95671137 C0.0265708986,5.00908322 0.0548141378,5.06575154 0.107185995,5.0832836 C0.117419131,5.08670925 0.12813929,5.08845596 0.138930591,5.08845596 L1.70341669,5.08845596 L1.70341669,5.08845596 L0.989529158,8.28075484 C0.977476226,8.33465207 1.01139773,8.38811523 1.06529496,8.40016817 C1.10757582,8.40962335 1.15113621,8.39077629 1.17319154,8.35348508 L4.21292947,3.21388825 C4.24104435,3.16635154 4.22529985,3.10502382 4.17776314,3.07690894 C4.16234765,3.06779168 4.14476649,3.06298176 4.12685666,3.06298176 L2.59876418,3.06298176 L2.59876418,3.06298176 L4.21953843,0.148602665 C4.24638094,0.100336072 4.22901329,0.0394481121 4.1807467,0.0126056013 C4.16588153,0.00433862976 4.14915333,9.08282627e-13 4.13214403,9.08606523e-13 L1.77539508,9.08606523e-13 C1.7323993,9.08572788e-13 1.69421627,0.0274835298 1.68056744,0.0682554041 Z" fill="#2C2E30"></path>
    </g>
</svg>