<?xml version="1.0" encoding="UTF-8"?>
<svg width="22px" height="10px" viewBox="0 0 22 10" version="1.1" xmlns="http://www.w3.org/2000/svg" xmlns:xlink="http://www.w3.org/1999/xlink">
    <title>am</title>
    <g id="am" stroke="none" stroke-width="1" fill="none" fill-rule="evenodd">
        <path d="M2.24,9.338 L2.758,7.644 L6.44,7.644 L6.972,9.338 L9.184,9.338 L6.188,-1.31450406e-13 L2.954,-1.31450406e-13 L-3.97903932e-13,9.338 L2.24,9.338 Z M5.992,6.062 L3.234,6.062 L4.606,1.624 L5.992,6.062 Z M12.2083322,9.338 L12.2083322,5.418 C12.2083322,4.76 12.1943322,4.34 12.0963322,2.744 L12.0543322,1.862 L12.1243322,1.862 L12.3903322,2.716 C12.8943322,4.27 13.0063322,4.592 13.2583322,5.292 L14.7703322,9.338 L16.6603322,9.338 L18.1583322,5.278 L18.1970751,5.1687356 L18.1970751,5.1687356 L18.2713808,4.95685772 C18.4422076,4.4653218 18.6063322,3.95870588 18.9983322,2.702 L19.2643322,1.834 L19.3343322,1.834 L19.2923322,2.73 C19.2176655,4.16111111 19.1983075,4.57454321 19.1949275,5.17971193 L19.1943322,9.338 L21.3223322,9.338 L21.3223322,-1.31450406e-13 L17.8363322,-1.31450406e-13 L16.6043322,3.5 C16.4083322,4.046 16.3103322,4.382 15.9463322,5.656 L15.7363322,6.384 L15.6523322,6.384 C15.1063322,4.536 14.9663322,4.102 14.7563322,3.486 L13.4963322,-1.31450406e-13 L10.0803322,-1.31450406e-13 L10.0803322,9.338 L12.2083322,9.338 Z" fill="#2C2E30" fill-rule="nonzero"></path>
    </g>
</svg>