<?xml version="1.0" encoding="UTF-8"?>
<svg width="260px" height="132px" viewBox="0 0 260 132" version="1.1" xmlns="http://www.w3.org/2000/svg" xmlns:xlink="http://www.w3.org/1999/xlink">
    <title>beep_lines</title>
    <g id="beep_lines" stroke="none" stroke-width="1" fill="none" fill-rule="evenodd">
        <path d="M31.2650313,90.5435305 L18.6339586,104.175084 C23.2796758,96.7917788 24.3663986,95.5446026 31.2650313,90.5435305 L31.2650313,90.5435305 Z M24.8869649,76.2866763 L2.75132275,82.2895623 C18.1461081,77.6132343 10.7540819,79.5630154 24.8869649,76.2866763 L24.8869649,76.2866763 Z M230.48581,61.9047619 L252.621453,68.2828283 C246.670036,67.7440775 240.870291,65.6845451 235.149895,63.5929849 L233.5917,63.0228839 C232.554143,62.6437785 231.518991,62.2680885 230.48581,61.9047619 L230.48581,61.9047619 Z M2.75132275,47.6479076 C10.4434487,48.7528759 19.6746204,54.2002315 26.5127465,57.9028379 L26.5127465,57.9028379 Z M259.87494,43.5209235 C234.732771,47.7804761 247.200795,47.2747009 222.481962,45.2960937 L222.481962,45.2960937 Z M118.682059,13.1313131 L120.808081,26.1375661 C118.686711,15.6913777 119.150525,20.0636123 118.682059,13.1313131 Z M224.101526,12.0672273 L224.119323,12.0761804 L208.475228,23.3862434 C210.642873,21.2634935 212.497464,18.7634358 214.978161,17.017994 C222.415129,11.7852725 223.509444,11.7671367 224.101526,12.0672273 Z M237.253323,2.58318038 L237.240899,2.59812777 C236.363449,3.63968851 236.431061,4.1829876 233.99284,6.13640692 C233.51851,6.51642399 232.848859,6.58753437 232.362903,6.95252106 C230.914088,8.04068107 232.815687,7.58724353 231.004795,8.31271128 C230.836659,8.380069 230.612203,8.21211297 230.461526,8.31271128 C229.514737,8.94482873 229.164898,9.81316353 227.74505,10.761119 C224.80109,12.7266414 224.593958,12.3319171 224.133358,12.083882 L224.119323,12.0761804 L237.253323,2.58318038 Z M240.2405,0.423542694 L237.253323,2.58318038 L237.346533,2.47562789 C237.787418,1.97591484 238.457892,1.35442786 239.697231,0.423542694 C239.842103,0.314727476 240.059411,0.423542694 240.2405,0.423542694 Z M127.929656,125.907993 C119.525817,114.902341 118.89249,113.493756 119.908351,114.322841 L119.929323,114.34018 L133.439153,131.438191 C131.755696,129.748408 129.856667,128.248278 128.334888,126.416256 Z M87.7922078,106.926407 C84.5458396,120.171034 87.7155654,112.307333 78.7878788,128.811929 L87.7922078,106.926407 Z M176.044179,117.01009 C177.096303,118.487627 177.905379,120.125698 178.835979,121.683502 L174.217323,115.23418 L174.201487,115.202049 C173.572125,113.948313 173.299992,113.156327 176.044179,117.01009 Z M171.389323,111.28518 L174.217323,115.23418 L174.247013,115.292331 C174.277721,115.352966 174.309096,115.414423 174.340849,115.47625 L174.436961,115.662385 C174.453074,115.693442 174.46921,115.724478 174.485333,115.755437 L174.581629,115.939814 C175.378026,117.461053 175.962879,118.507231 171.849811,112.019176 C171.711189,111.800511 171.583851,111.597618 171.467225,111.409729 L171.389323,111.28518 Z M117.431457,111.178451 C121.064067,115.360154 122.285938,116.733856 122.388045,116.851638 L122.391323,116.85618 L122.37866,116.842465 C122.206925,116.65537 120.736891,115.028925 119.983634,114.385768 L119.929323,114.34018 L117.431457,111.178451 Z M170.710323,109.59618 L170.747402,109.632464 C171.147222,110.025846 171.830782,110.838285 172.505827,111.676215 L172.757999,111.990864 C173.509892,112.933786 174.204773,113.846705 174.426522,114.169249 L174.482344,114.25413 C174.637165,114.510285 173.790119,113.507493 170.826343,109.744413 L170.710323,109.59618 Z M164.329004,101.423761 C166.952988,104.802838 168.955708,107.366071 170.460459,109.279498 L170.710323,109.59618 L170.675832,109.563712 C170.221818,109.139385 170.239687,109.408269 171.30025,111.139051 L171.389323,111.28518 L164.329004,101.423761 Z M162.578163,1.25060125 C161.353364,3.98981239 160.818507,5.20557921 160.357198,6.13227395 L160.268665,6.30835605 C160.224692,6.39492376 160.181036,6.47953006 160.137137,6.56329367 L160.048851,6.73002879 C160.019204,6.78545363 159.989284,6.84083541 159.958926,6.89650562 L159.866368,7.06471299 C158.95572,8.70549041 157.536887,10.8676037 151.572872,21.6354016 L151.572872,21.6354016 Z" id="beep-lines" stroke="#000000" stroke-width="0.75036075"></path>
    </g>
</svg>