<?xml version="1.0" encoding="UTF-8"?>
<svg width="150px" height="64px" viewBox="0 0 150 64" version="1.1" xmlns="http://www.w3.org/2000/svg" xmlns:xlink="http://www.w3.org/1999/xlink">
    <title>beep_text</title>
    <g id="beep_text" stroke="none" stroke-width="1" fill="none" fill-rule="evenodd">
        <path d="M8.99997304,63.9160217 L9.06223981,63.9051274 C11.3168427,63.5075801 13.1033848,62.7704396 14.7560965,61.8298877 L14.9462191,61.7204675 C15.1041913,61.6285446 15.2610451,61.5347896 15.4170775,61.4393234 L15.6039412,61.3239503 C15.6661103,61.285224 15.7281671,61.2462316 15.7901304,61.206981 L15.9757594,61.0884619 C16.037555,61.0487024 16.0992762,61.0086924 16.1609421,60.9684396 L16.3457927,60.8469606 L16.3457927,60.8469606 L16.5304254,60.7240712 C16.5611856,60.7034747 16.5919416,60.6828214 16.6226956,60.6621122 L16.8072151,60.5371947 L16.8072151,60.5371947 L16.9918019,60.410983 C17.0225783,60.3898425 17.0533622,60.36865 17.0841561,60.3474065 L17.2690576,60.219341 L17.2690576,60.219341 L17.5471065,60.0250488 L17.5471065,60.0250488 L17.9197375,59.7621413 L17.9197375,59.7621413 L18.2011344,59.5622757 L18.2011344,59.5622757 L19.2536186,58.8124298 L19.2536186,58.8124298 C23.3993479,55.6530282 25.5454442,51.6898361 24.9719617,48.437455 C24.3871084,45.1205871 22.0348956,43.6054922 20.2410124,42.7040403 L20.0770767,42.6225377 L20.0770767,42.6225377 L19.9167191,42.5443131 L19.9167191,42.5443131 L19.760346,42.469159 L19.760346,42.469159 L19.2502875,42.2273013 L19.2502875,42.2273013 L19.1168753,42.1633943 C19.095147,42.1529096 19.0736779,42.1425053 19.0524764,42.132177 L18.9285471,42.0710846 C18.5868979,41.900378 18.3274934,41.7491403 18.1919399,41.5961159 L18.150778,41.5402986 C18.0900504,41.4563936 18.0361763,41.3712802 18.0199966,41.2795202 C17.9507832,40.8869915 18.1897595,40.2666636 18.5611285,39.7386292 L19.8243867,38.012589 L20.0337001,37.2240345 L21.1972455,35.9203092 C22.0556181,35.190765 22.4110655,33.9138912 22.2528634,33.0166826 C21.382752,28.0820355 13.9670829,24.8797367 7.366053,25.6389434 L5.26285352,25.8941562 L4.08338652,26.449042 L1.9999623,26.8164059 L0.087644811,28.4834359 L0,30.2912788 L0.895413448,32.7352479 L1.34639083,35.9514109 L1.24584137,37.3567963 L2.32057602,43.1226478 L3.0420437,51.4948253 L3.38207671,52.7647051 L3.47927985,55.2916012 L4.36614953,59.9920175 L4.36966729,60.0216484 L4.36966729,60.0216484 L4.39429839,60.2973344 L4.39429839,60.2973344 L4.41006645,60.4495676 L4.41006645,60.4495676 L4.43078168,60.6240291 L4.43078168,60.6240291 L4.44591776,60.7377964 L4.44591776,60.7377964 L4.45724288,60.8169229 L4.45724288,60.8169229 L4.46961517,60.8983912 L4.46961517,60.8983912 L4.49024887,61.0244531 L4.49024887,61.0244531 L4.49770574,61.0673814 C4.52407275,61.2169162 4.5559606,61.3738685 4.59417418,61.533701 L4.62403302,61.6540446 C4.78974004,62.2980011 5.05987838,62.9698937 5.48596145,63.3793419 C6.2411187,64.0147352 7.09424394,64.1283713 8.03305497,64.0483895 L8.15085174,64.0374071 L8.15085174,64.0374071 L8.26953575,64.0245502 C8.28939005,64.0222591 8.3092811,64.0198959 8.32920879,64.0174634 L8.44921364,64.002062 L8.44921364,64.002062 L8.57009239,63.9851421 L8.57009239,63.9851421 L8.69183972,63.9668463 L8.69183972,63.9668463 L8.81445028,63.947317 L8.81445028,63.947317 L8.99997304,63.9160217 L8.99997304,63.9160217 Z M8.08288245,41.7390388 C7.80229219,41.7885145 7.66068441,41.6417296 7.59215049,41.2530545 L7.58265785,41.1980241 C7.56486017,41.0905163 7.54731251,40.9482801 7.56994406,40.7989592 L7.5463163,37.7115517 L6.98300378,33.8605348 C6.87984757,32.6191941 7.77248579,31.7747815 9.06320099,31.5471936 C10.3855464,31.3140284 11.6657643,31.4746104 12.4326247,31.8411051 L15.2571892,33.2030918 L15.3087673,33.8237622 L15.6311451,34.3394319 L15.0458435,34.9578986 L13.3264757,36.6923537 L11.863577,38.8968485 L10.0756753,40.2426284 C10.029129,40.2794614 9.98039871,40.3198602 9.92984685,40.3630319 L9.8526982,40.4297701 L9.8526982,40.4297701 L9.77308909,40.500073 L9.77308909,40.500073 L9.60757694,40.6489948 L9.60757694,40.6489948 L9.39168924,40.8446074 L9.39168924,40.8446074 L9.25898914,40.9634529 L9.25898914,40.9634529 L9.16976902,41.0420603 C9.15486765,41.0550787 9.13995439,41.0680474 9.12503489,41.0809541 L9.03548841,41.1575504 L9.03548841,41.1575504 L8.94606418,41.2320626 C8.63361053,41.4885148 8.32839893,41.6957476 8.08288245,41.7390388 Z M9.80542707,56.7464938 L9.2113416,55.6969332 L9.09922224,55.4164009 L9.09922224,55.4164009 L9.06679884,55.3328391 C9.02580787,55.2246355 8.99436807,55.1291768 8.97956312,55.0452137 C8.96311318,54.9519215 8.95295984,54.857519 8.94453982,54.7606732 L8.92659461,54.5380849 C8.91611098,54.4115093 8.90298805,54.2795541 8.87831314,54.1396157 L8.80922338,53.7477883 C8.76882964,53.518704 8.81366034,53.2803124 8.88697615,53.0210089 L8.9139427,52.9286029 L8.9139427,52.9286029 L8.97275507,52.7381273 L8.97275507,52.7381273 L9.01895097,52.5898688 C9.02410237,52.5731219 9.02924839,52.5562813 9.03437749,52.5393448 L9.06485662,52.4365549 C9.19023686,52.0033073 9.29060371,51.5071199 9.18550686,50.9110861 L9.16576693,50.7991354 L8.77351868,48.9059658 C8.69288106,48.4486472 9.39540028,47.9599532 10.3666511,47.5260021 L10.5038668,47.4658147 C10.642723,47.4059999 10.7863456,47.347329 10.933337,47.2900359 L11.0813995,47.2332107 C11.1062465,47.2238192 11.1311741,47.2144682 11.1561759,47.2051587 L11.3070249,47.1498088 L11.3070249,47.1498088 L11.4593433,47.0955074 L11.4593433,47.0955074 L11.6128206,47.0423064 L11.6128206,47.0423064 L11.7671462,46.990258 C11.7929206,46.9816822 11.8187174,46.9731566 11.8445301,46.9646822 L11.9995458,46.91446 L11.9995458,46.91446 L12.1546334,46.8655202 L12.1546334,46.8655202 L12.3094823,46.8179149 C12.3352533,46.8100948 12.3610014,46.8023324 12.3867202,46.7946289 L12.5406287,46.7491228 L12.5406287,46.7491228 L12.6935221,46.7050811 L12.6935221,46.7050811 L12.8450899,46.6625558 L12.8450899,46.6625558 L12.9950214,46.621599 L12.9950214,46.621599 L13.143006,46.5822625 L13.143006,46.5822625 L13.2887333,46.5445985 L13.2887333,46.5445985 L13.4318926,46.5086589 L13.4318926,46.5086589 L13.5721734,46.4744956 L13.5721734,46.4744956 L13.7092651,46.4421607 L13.7092651,46.4421607 L13.8428571,46.4117062 L13.8428571,46.4117062 L13.9726388,46.383184 L13.9726388,46.383184 L14.0982998,46.3566462 C14.1394655,46.3481368 14.1798926,46.3399668 14.2195294,46.3321448 L14.336017,46.3097316 L14.336017,46.3097316 L14.4474522,46.2894588 L14.4474522,46.2894588 C16.5442219,45.9197417 18.8065621,47.4831637 19.1322709,49.3303503 C19.1339159,49.3396795 19.1354415,49.350633 19.1368848,49.3630372 L19.1410047,49.4044286 L19.1410047,49.4044286 L19.1467441,49.4805587 L19.1467441,49.4805587 L19.1593874,49.6704895 L19.1593874,49.6704895 L19.1647616,49.7411438 L19.1647616,49.7411438 L19.1710858,49.8137347 L19.1710858,49.8137347 L19.1785824,49.8872211 C19.1853798,49.9485437 19.1936298,50.0097146 19.203911,50.0680222 L18.0609834,51.5392964 L17.7556772,52.4588656 L17.7046948,52.5081993 L17.7046948,52.5081993 L17.6194757,52.5887453 L17.6194757,52.5887453 L17.5241922,52.6766966 L17.5241922,52.6766966 L17.4193283,52.7715479 L17.4193283,52.7715479 L17.3443356,52.8383658 L17.3443356,52.8383658 L17.22458,52.9435939 L17.22458,52.9435939 L17.1401077,53.0168617 L17.1401077,53.0168617 L17.0068049,53.1310629 L17.0068049,53.1310629 L16.8660192,53.249974 L16.8660192,53.249974 L16.7182345,53.3730898 L16.7182345,53.3730898 L16.6160621,53.4572534 L16.6160621,53.4572534 L16.4576881,53.586254 L16.4576881,53.586254 L16.293606,53.7181115 L16.293606,53.7181115 L16.1812856,53.8073542 L16.1812856,53.8073542 L16.0667868,53.8974924 L16.0667868,53.8974924 L15.8318276,54.0798561 L15.8318276,54.0798561 L15.6509563,54.2178658 L15.6509563,54.2178658 L15.4666356,54.3563741 L15.4666356,54.3563741 L15.2793495,54.4948757 L15.2793495,54.4948757 L15.0895819,54.6328653 L15.0895819,54.6328653 L14.9619307,54.7243243 L14.9619307,54.7243243 L14.8335351,54.8151814 L14.8335351,54.8151814 L14.7045387,54.9052868 L14.7045387,54.9052868 L14.5750847,54.9944908 L14.5750847,54.9944908 L14.4453167,55.0826436 L14.4453167,55.0826436 L14.315378,55.1695956 C14.2937153,55.1839792 14.2720515,55.1983066 14.2503895,55.2125745 L14.1204637,55.2974444 C14.0988211,55.3114623 14.0771863,55.3254145 14.0555623,55.339298 L13.9259721,55.421749 L13.9259721,55.421749 L13.7967849,55.5024001 L13.7967849,55.5024001 L13.6681441,55.5811017 C13.6467575,55.5940478 13.6253996,55.6069065 13.6040735,55.6196746 L13.4765212,55.695171 L13.4765212,55.695171 C13.1562444,55.8670758 12.5994198,56.0229747 12.1460642,56.1029136 L12.0317065,56.1223096 L12.0317065,56.1223096 L11.9574092,56.134112 L11.9574092,56.134112 L11.8143857,56.155141 L11.8143857,56.155141 L11.712791,56.1687742 L11.712791,56.1687742 L11.5562993,56.1877157 L11.5562993,56.1877157 L11.4185937,56.2023284 L11.4185937,56.2023284 L11.2826044,56.2147942 L11.2826044,56.2147942 L11.1161441,56.2268006 L11.1161441,56.2268006 L9.80542707,56.7464938 Z M53.6443195,56.495351 C53.795086,56.4687668 54.0167392,56.3786829 54.2538703,56.2651651 L54.3434118,56.2215757 L54.3434118,56.2215757 L54.433755,56.1762589 C54.4488429,56.1685883 54.4639372,56.1608652 54.4790243,56.1530995 L54.6248577,56.0766747 L54.6248577,56.0766747 L54.780036,55.992674 L54.780036,55.992674 L54.9278456,55.9104311 L54.9278456,55.9104311 L55.1156152,55.8031495 L55.1156152,55.8031495 L55.3273055,55.6786425 L55.3273055,55.6786425 L55.4630835,55.5965301 L55.4630835,55.5965301 L55.9253089,54.5900293 L56.6794251,53.5898726 L55.9397238,50.7140585 L54.3715185,50.0655774 L53.25452,49.3375364 L51.3636324,49.4975138 L49.7716039,49.3735447 L49.3672146,49.2389586 L49.3672146,49.2389586 L49.1922605,49.1794491 L49.1922605,49.1794491 L48.9967387,49.1116726 L48.9967387,49.1116726 L48.7262072,49.015544 L48.7262072,49.015544 L48.5513281,48.9518898 L48.5513281,48.9518898 L48.3679747,48.8838264 L48.3679747,48.8838264 L48.1769205,48.8114141 L48.1769205,48.8114141 L47.9789393,48.7347131 L47.9789393,48.7347131 L47.8434857,48.6812262 L47.8434857,48.6812262 L47.7055265,48.6258779 L47.7055265,48.6258779 L47.565291,48.568686 L47.565291,48.568686 L47.4230085,48.5096683 L47.4230085,48.5096683 L47.2789082,48.4488428 L47.2789082,48.4488428 L47.1332194,48.3862272 L47.1332194,48.3862272 L46.9861714,48.3218394 L46.9861714,48.3218394 L46.8379933,48.2556972 L46.8379933,48.2556972 L46.6889145,48.1878186 L46.6889145,48.1878186 L46.5391642,48.1182213 L46.5391642,48.1182213 L46.3889716,48.0469232 C46.3639154,48.0348995 46.3388503,48.0228056 46.3137811,48.010642 L46.163355,47.9368262 C46.1382885,47.9243851 46.1132275,47.9118749 46.0881767,47.8992961 L45.9380328,47.8230028 C45.913042,47.810151 45.888071,47.7972313 45.8631246,47.784244 L45.7137788,47.7055133 C44.9440765,47.2945825 44.2071535,46.8194808 43.6452941,46.2912875 C43.5028329,46.1429701 43.3504852,45.9385836 43.3208257,45.7703763 C43.2120742,45.153616 43.978995,44.5558881 45.4454172,44.2973184 C46.1086912,44.1803652 46.892816,44.1282202 47.7462106,44.1017526 L47.991878,44.0948554 C48.0331219,44.093811 48.0745116,44.0928164 48.1160418,44.0918674 L48.3668626,44.086686 L48.3668626,44.086686 L48.6207848,44.082395 L48.6207848,44.082395 L49.2674045,44.0742318 L49.2674045,44.0742318 L50.1944764,44.063989 L50.1944764,44.063989 L50.5970737,44.0581213 L50.5970737,44.0581213 L50.8665639,44.0532099 L50.8665639,44.0532099 L51.1366157,44.047262 C52.3977522,44.0167718 53.6685022,43.9458017 54.8265997,43.7415979 C57.4774398,43.2741832 59.1589249,40.6073847 58.7140325,38.0842744 C57.5671987,31.5802567 53.6800682,28.3344213 48.7167931,29.2095806 L45.6641787,30.0369007 L44.4089016,30.8365042 L44.4089016,30.8365042 L44.2987583,30.8878533 L44.2987583,30.8878533 L44.1582441,30.9565661 L44.1582441,30.9565661 L44.0455077,31.0136454 L44.0455077,31.0136454 L43.942822,31.0669953 L43.942822,31.0669953 L43.8590542,31.111433 L43.8590542,31.111433 L43.7390148,31.1765125 L43.7390148,31.1765125 L43.6101827,31.2481724 L43.6101827,31.2481724 L43.4733751,31.3263239 L43.4733751,31.3263239 L43.3660271,31.389144 L43.3660271,31.389144 L43.2549973,31.4555282 L43.2549973,31.4555282 L43.1791023,31.5017457 L43.1791023,31.5017457 L43.0627023,31.5739865 L43.0627023,31.5739865 L42.9835464,31.6240737 L42.9835464,31.6240737 L42.862734,31.7020669 L42.862734,31.7020669 L42.7397338,31.7834616 L42.7397338,31.7834616 L42.6566885,31.8395958 L42.6566885,31.8395958 L42.5308081,31.9265763 L42.5308081,31.9265763 L42.4461619,31.9863996 L42.4461619,31.9863996 L42.361054,32.0476792 L42.361054,32.0476792 L42.2755868,32.1104039 L42.2755868,32.1104039 L42.1898622,32.1745626 L42.1898622,32.1745626 L42.1039825,32.2401441 L42.1039825,32.2401441 L42.0180498,32.3071373 L42.0180498,32.3071373 L41.9321662,32.3755312 L41.9321662,32.3755312 L41.846434,32.4453147 L41.846434,32.4453147 L41.7609552,32.5164765 C41.7467355,32.5284511 41.7325307,32.5404826 41.7183428,32.5525709 L41.6334357,32.6257795 C41.6193241,32.6380938 41.6052337,32.6504644 41.5911666,32.662891 C41.1133153,33.0979813 40.5804081,33.7165762 40.0641682,34.3762868 L39.9299222,34.5492242 L39.9299222,34.5492242 L39.7967152,34.7234653 L39.7967152,34.7234653 L39.6648304,34.8984483 L39.6648304,34.8984483 L39.5345506,35.0736114 C39.5129868,35.1027891 39.4915016,35.1319509 39.470101,35.161085 L39.3427593,35.3354651 C39.3217205,35.364442 39.3007781,35.393368 39.2799379,35.4222312 L39.1561709,35.5945643 L39.1561709,35.5945643 L39.0351407,35.7648306 L39.0351407,35.7648306 L38.8456203,36.0348147 L38.8456203,36.0348147 L38.6326288,36.3430035 L38.6326288,36.3430035 L38.4618209,36.5937299 L38.4618209,36.5937299 L38.3032014,36.8294011 L38.3032014,36.8294011 L38.112857,37.1158653 L38.112857,37.1158653 L37.9131353,37.4209457 L37.9131353,37.4209457 L37.6246418,37.8716615 L37.6246418,37.8716615 L37.5881808,38.3874611 L37.5881808,38.3874611 L37.5497569,38.9946479 L37.5497569,38.9946479 L37.529717,39.3469015 L37.529717,39.3469015 L37.5107568,39.7165536 L37.5107568,39.7165536 L37.5027768,39.8883892 L37.5027768,39.8883892 L37.4929733,40.1205581 L37.4929733,40.1205581 L37.4844549,40.3533153 L37.4844549,40.3533153 L37.4776531,40.5809561 L37.4776531,40.5809561 L37.4728675,40.8007178 L37.4728675,40.8007178 L37.4707818,40.9587066 L37.4707818,40.9587066 L37.4701253,41.1095438 L37.4701253,41.1095438 L37.4710243,41.2520641 L37.4710243,41.2520641 L37.4736054,41.3851019 L37.4736054,41.3851019 L37.4763231,41.4679502 L37.4763231,41.4679502 L37.479882,41.5457207 L37.479882,41.5457207 L37.4843196,41.6180681 C37.4851345,41.6296549 37.4859875,41.6410013 37.4868796,41.6521002 L37.4927055,41.7156655 C37.4969093,41.7559852 37.5017615,41.792114 37.5073118,41.8235914 L37.9382675,44.9272829 L37.9232357,45.0761987 L37.9232357,45.0761987 L37.9125414,45.1919571 L37.9125414,45.1919571 L37.9046576,45.2839266 L37.9046576,45.2839266 L37.8928516,45.4354511 L37.8928516,45.4354511 L37.8852689,45.5445979 L37.8852689,45.5445979 L37.8781365,45.659516 L37.8781365,45.659516 L37.871643,45.7795771 C37.8706244,45.799981 37.8696403,45.8205729 37.8686947,45.8413399 L37.8635129,45.9679373 C37.8619602,46.0107667 37.8605925,46.0541914 37.8594413,46.0981068 L37.8566683,46.23122 C37.849799,46.6791388 37.8677162,47.1656476 37.9418396,47.5860223 C37.9707215,47.7498197 38.0215992,47.9257737 38.0874307,48.1068383 L38.1188506,48.1907438 C38.1242557,48.2047799 38.1297428,48.2188399 38.1353089,48.2329206 L38.1696258,48.317626 L38.1696258,48.317626 L38.2056817,48.4026724 C38.2118273,48.4168666 38.2180391,48.4310687 38.2243136,48.4452753 L38.2626895,48.5305444 L38.2626895,48.5305444 L38.3024198,48.6157695 L38.3024198,48.6157695 L38.3433506,48.7007967 L38.3433506,48.7007967 L38.385328,48.785472 L38.385328,48.785472 L38.4281982,48.8696416 L38.4281982,48.8696416 L38.4718074,48.9531514 L38.4718074,48.9531514 L38.5160017,49.0358476 L38.5160017,49.0358476 L38.5606272,49.1175761 L38.5606272,49.1175761 L38.6280375,49.2380178 L38.6280375,49.2380178 L38.6955527,49.3554165 L38.6955527,49.3554165 L38.7626535,49.4692526 L38.7626535,49.4692526 L38.8069008,49.5429074 L38.8069008,49.5429074 L38.893535,49.6841585 L38.893535,49.6841585 L38.9562773,49.7841893 L38.9562773,49.7841893 L39.0359683,49.9086992 L39.0359683,49.9086992 L39.1445079,50.0739672 L39.1445079,50.0739672 L39.2743526,50.2652749 L39.2743526,50.2652749 L39.3682376,50.3985656 L39.3682376,50.3985656 L43.1594213,53.4300696 L43.9676741,54.385988 L46.5230987,55.3569223 L46.5230987,55.3569223 L46.7013383,55.4209141 L46.7013383,55.4209141 L46.8930158,55.4873247 L46.8930158,55.4873247 L47.0815739,55.5506771 L47.0815739,55.5506771 L47.2420466,55.6031942 L47.2420466,55.6031942 L47.4177883,55.6593125 L47.4177883,55.6593125 L47.5429597,55.6984203 L47.5429597,55.6984203 L47.6742085,55.738671 L47.6742085,55.738671 L47.8818567,55.8007892 L47.8818567,55.8007892 L48.0270588,55.8430958 L48.0270588,55.8430958 L48.177346,55.8859044 L48.177346,55.8859044 L48.3324348,55.9290318 L48.3324348,55.9290318 L48.4920417,55.9722949 L48.4920417,55.9722949 L48.6558832,56.0155107 L48.6558832,56.0155107 L48.8236757,56.058496 L48.8236757,56.058496 L48.9951359,56.1010677 C49.0240024,56.1081183 49.05301,56.1151441 49.0821527,56.1221412 L49.2585826,56.1637492 C49.3772203,56.1912177 49.4978305,56.2181053 49.6200352,56.2441679 L49.8044909,56.2826125 L49.8044909,56.2826125 L49.9910548,56.3196364 L49.9910548,56.3196364 L50.1794435,56.3550565 C51.346217,56.5681589 52.6009037,56.6793334 53.6443195,56.495351 Z M49.2448413,38.9389226 L47.4007411,39.0294653 C47.3443668,39.0394056 47.2806141,39.0441297 47.2123141,39.0474831 L47.0521597,39.0543378 C46.9602489,39.0586638 46.8645503,39.0653548 46.7705931,39.0819219 L45.5231944,39.3017865 L45.3593483,39.329591 C45.323376,39.3354793 45.2877064,39.3411378 45.2523606,39.3464943 L45.1473157,39.3615858 C44.7832069,39.41073 44.4571336,39.4186228 44.1936269,39.3016887 C43.7982727,39.1107093 43.6384726,38.6928152 43.5585283,38.3226337 L43.5444366,38.2538508 L43.5444366,38.2538508 L43.5319883,38.1865885 L43.5319883,38.1865885 C43.3714975,37.2763999 43.7145656,35.9254873 44.729303,35.7465618 L46.9943056,35.4058361 L48.2879186,34.8254298 L48.2879186,34.8254298 L48.3944084,34.7600962 L48.3944084,34.7600962 L48.4714739,34.714546 L48.4714739,34.714546 L48.5651926,34.6607384 L48.5651926,34.6607384 L48.6731671,34.6007988 L48.6731671,34.6007988 L48.7317511,34.5691938 L48.7317511,34.5691938 L48.8245303,34.5204893 L48.8245303,34.5204893 L48.9222942,34.4710255 L48.9222942,34.4710255 L49.0240316,34.4216993 L49.0240316,34.4216993 L49.0935644,34.3893342 L49.0935644,34.3893342 L49.1641141,34.3576945 C49.1759404,34.3524964 49.1877967,34.3473396 49.1996765,34.3422296 L49.2711895,34.3121759 C49.3070378,34.2974743 49.3429865,34.2832938 49.378867,34.2697837 L49.450487,34.2437019 C49.5695357,34.2018698 49.6865779,34.1685948 49.7953704,34.1494117 C50.5282363,34.0201877 51.3146961,34.3731872 51.9276427,34.893816 L51.9975843,34.9546146 C52.527702,35.4261659 52.9152025,36.0194259 53.0028706,36.5166165 L53.023498,36.637419 L53.023498,36.637419 L53.0373466,36.7253371 L53.0373466,36.7253371 L53.0494888,36.811 L53.0494888,36.811 L53.0564948,36.8668758 L53.0564948,36.8668758 L53.0625315,36.9217795 L53.0625315,36.9217795 L53.0675144,36.9757231 C53.0682524,36.9846344 53.068943,36.9935062 53.0695843,37.0023387 L53.0728284,37.0548647 L53.0728284,37.0548647 L53.0748079,37.1064609 C53.0754401,37.1320285 53.075621,37.1572519 53.0752212,37.1821378 L53.0736699,37.2314619 C53.0728975,37.2477546 53.0718651,37.2638994 53.0705586,37.2798982 L53.065803,37.3274589 L53.065803,37.3274589 L53.0593187,37.374156 C52.9916986,37.7982911 52.6955588,38.1150963 51.878473,38.3663755 L51.7872558,38.3935299 C51.7405998,38.4069791 51.6923623,38.4202379 51.6424957,38.433313 L51.5405765,38.4592204 L51.5405765,38.4592204 L51.434229,38.4846502 C51.4161307,38.4888493 51.3978443,38.4930291 51.3793682,38.4971897 L51.2662198,38.5219256 L51.2662198,38.5219256 L49.2448413,38.9389226 Z M87.3662179,50.6252428 C87.4455316,50.6112576 87.5444632,50.579699 87.6549457,50.5363999 L87.7225568,50.5090584 L87.7225568,50.5090584 L87.7925529,50.4791791 C87.8043962,50.4740033 87.8163227,50.4687334 87.8283243,50.4633753 L87.9011719,50.4302145 L87.9011719,50.4302145 L87.9754365,50.3952159 L87.9754365,50.3952159 L88.0886431,50.3398849 L88.0886431,50.3398849 L88.2028598,50.2819939 L88.2028598,50.2819939 L88.3544613,50.2024571 L88.3544613,50.2024571 L88.4659528,50.142268 L88.4659528,50.142268 L88.5740983,50.0826688 L88.5740983,50.0826688 L88.7108284,50.0057542 L88.7108284,50.0057542 L88.8653898,49.9168609 L88.8653898,49.9168609 L88.996136,49.8401061 L88.996136,49.8401061 L89.1849819,49.7264218 L89.1849819,49.7264218 L89.6472074,48.719921 L90.4013235,47.7197644 L89.6616222,44.8439502 L88.0934169,44.1954692 L86.9764184,43.4674281 L85.0855308,43.6274055 L83.4935023,43.5034365 L83.089113,43.3688504 L83.089113,43.3688504 L82.9141589,43.3093408 L82.9141589,43.3093408 L82.7186372,43.2415643 L82.7186372,43.2415643 L82.4481056,43.1454358 L82.4481056,43.1454358 L82.2732266,43.0817816 L82.2732266,43.0817816 L82.0898731,43.0137182 L82.0898731,43.0137182 L81.8988189,42.9413059 L81.8988189,42.9413059 L81.7008377,42.8646048 L81.7008377,42.8646048 L81.5653841,42.811118 L81.5653841,42.811118 L81.4274249,42.7557697 L81.4274249,42.7557697 L81.2871894,42.6985778 L81.2871894,42.6985778 L81.1449069,42.6395601 L81.1449069,42.6395601 L81.0008066,42.5787345 L81.0008066,42.5787345 L80.8551179,42.5161189 L80.8551179,42.5161189 L80.7080698,42.4517311 L80.7080698,42.4517311 L80.5598918,42.385589 L80.5598918,42.385589 L80.4108129,42.3177103 L80.4108129,42.3177103 L80.2610626,42.2481131 L80.2610626,42.2481131 L80.11087,42.176815 C80.0858138,42.1647912 80.0607487,42.1526974 80.0356795,42.1405337 L79.8852534,42.066718 C79.8601869,42.0542768 79.8351259,42.0417667 79.8100751,42.0291879 L79.6599312,41.9528946 C79.6349404,41.9400427 79.6099694,41.927123 79.585023,41.9141358 L79.4356773,41.8354051 C78.6659749,41.4244743 77.9290519,40.9493725 77.3671925,40.4211792 C77.2247313,40.2728619 77.0723836,40.0684754 77.0427241,39.900268 C76.9339726,39.2835077 77.7008934,38.6857799 79.1673156,38.4272101 C79.8305897,38.310257 80.6147145,38.258112 81.4681091,38.2316444 L81.7137764,38.2247471 C81.7550203,38.2237028 81.7964101,38.2227082 81.8379402,38.2217592 L82.088761,38.2165777 L82.088761,38.2165777 L82.3426832,38.2122867 L82.3426832,38.2122867 L82.9893029,38.2041236 L82.9893029,38.2041236 L83.9163748,38.1938808 L83.9163748,38.1938808 L84.3189722,38.1880131 L84.3189722,38.1880131 L84.5884623,38.1831016 L84.5884623,38.1831016 L84.8585142,38.1771538 C86.1196506,38.1466635 87.3904006,38.0756935 88.5484981,37.8714896 C91.1993382,37.404075 92.8808234,34.7372765 92.4359309,32.2141662 C91.2890971,25.7101485 87.4019666,22.464313 82.4386916,23.3394723 L79.3860771,24.1667925 L78.1308,24.966396 L78.1308,24.966396 L78.0206568,25.0177451 L78.0206568,25.0177451 L77.8801425,25.0864578 L77.8801425,25.0864578 L77.7674061,25.1435372 L77.7674061,25.1435372 L77.6647204,25.196887 L77.6647204,25.196887 L77.5809526,25.2413248 L77.5809526,25.2413248 L77.4609132,25.3064043 L77.4609132,25.3064043 L77.3320811,25.3780642 L77.3320811,25.3780642 L77.1952735,25.4562156 L77.1952735,25.4562156 L77.0879255,25.5190358 L77.0879255,25.5190358 L76.9768957,25.5854199 L76.9768957,25.5854199 L76.9010007,25.6316375 L76.9010007,25.6316375 L76.7846008,25.7038782 L76.7846008,25.7038782 L76.7054449,25.7539655 L76.7054449,25.7539655 L76.5846325,25.8319587 L76.5846325,25.8319587 L76.4616323,25.9133533 L76.4616323,25.9133533 L76.3785869,25.9694876 L76.3785869,25.9694876 L76.2527065,26.056468 L76.2527065,26.056468 L76.1680603,26.1162914 L76.1680603,26.1162914 L76.0829525,26.177571 L76.0829525,26.177571 L75.9974852,26.2402957 L75.9974852,26.2402957 L75.9117606,26.3044543 L75.9117606,26.3044543 L75.8258809,26.3700358 L75.8258809,26.3700358 L75.7399482,26.4370291 L75.7399482,26.4370291 L75.6540646,26.505423 L75.6540646,26.505423 L75.5683324,26.5752064 L75.5683324,26.5752064 L75.4828536,26.6463683 C75.4686339,26.6583428 75.4544291,26.6703744 75.4402412,26.6824626 L75.3553341,26.7556713 C75.3412225,26.7679856 75.3271321,26.7803561 75.313065,26.7927827 C74.8352137,27.227873 74.3023066,27.8464679 73.7860666,28.5061785 L73.6518206,28.679116 L73.6518206,28.679116 L73.5186137,28.8533571 L73.5186137,28.8533571 L73.3867288,29.0283401 L73.3867288,29.0283401 L73.256449,29.2035032 C73.2348852,29.2326809 73.2134,29.2618426 73.1919994,29.2909768 L73.0646577,29.4653568 C73.0436189,29.4943338 73.0226765,29.5232597 73.0018363,29.5521229 L72.8780693,29.724456 L72.8780693,29.724456 L72.7570391,29.8947224 L72.7570391,29.8947224 L72.5675188,30.1647065 L72.5675188,30.1647065 L72.3545273,30.4728953 L72.3545273,30.4728953 L72.1837193,30.7236217 L72.1837193,30.7236217 L72.0250998,30.9592928 L72.0250998,30.9592928 L71.8347554,31.245757 L71.8347554,31.245757 L71.6350338,31.5508375 L71.6350338,31.5508375 L71.3465403,32.0015533 L71.3465403,32.0015533 L71.3100792,32.5173528 L71.3100792,32.5173528 L71.2716553,33.1245397 L71.2716553,33.1245397 L71.2516154,33.4767932 L71.2516154,33.4767932 L71.2326552,33.8464453 L71.2326552,33.8464453 L71.2221426,34.0756573 L71.2221426,34.0756573 L71.2126504,34.3075838 L71.2126504,34.3075838 L71.2045186,34.5394979 L71.2045186,34.5394979 L71.198179,34.7656119 L71.198179,34.7656119 L71.1939319,34.9831576 L71.1939319,34.9831576 L71.1921418,35.1390288 L71.1921418,35.1390288 L71.1921418,35.2873554 L71.1921418,35.2873554 L71.1929167,35.3814717 L71.1929167,35.3814717 L71.195494,35.514629 L71.195494,35.514629 L71.1982102,35.5975511 L71.1982102,35.5975511 L71.2017686,35.67539 L71.2017686,35.67539 L71.2062067,35.7477998 C71.2070218,35.7593964 71.2078751,35.7707524 71.2087674,35.7818605 L71.2145956,35.8454777 C71.2188014,35.8858295 71.2236562,35.9219851 71.2292102,35.9534832 L71.6601659,39.0571747 L71.6405185,39.2549129 L71.6405185,39.2549129 L71.6276617,39.4005303 L71.6276617,39.4005303 L71.6146763,39.5663521 L71.6146763,39.5663521 L71.6024078,39.7495606 L71.6024078,39.7495606 L71.5941854,39.896682 L71.5941854,39.896682 L71.5871984,40.0508097 L71.5871984,40.0508097 L71.5834029,40.1568669 L71.5834029,40.1568669 L71.5804206,40.2651574 L71.5804206,40.2651574 L71.5783572,40.3753292 L71.5783572,40.3753292 L71.5773185,40.4870298 C71.5772366,40.5057544 71.5772018,40.5245281 71.5772163,40.5433434 L71.5779126,40.6566771 C71.5781331,40.6756299 71.5784073,40.6946097 71.5787374,40.7136091 L71.5814065,40.8277834 C71.5904067,41.1325646 71.6148448,41.4386267 71.663738,41.715914 C71.6926199,41.8797114 71.7434976,42.0556655 71.8093291,42.2367301 L71.840749,42.3206355 C71.8461541,42.3346717 71.8516413,42.3487317 71.8572073,42.3628123 L71.8915242,42.4475178 L71.8915242,42.4475178 L71.9275801,42.5325642 C71.9337258,42.5467584 71.9399375,42.5609604 71.9462121,42.5751671 L71.984588,42.6604361 L71.984588,42.6604361 L72.0243182,42.7456612 L72.0243182,42.7456612 L72.065249,42.8306884 L72.065249,42.8306884 L72.1072264,42.9153638 L72.1072264,42.9153638 L72.1500966,42.9995333 L72.1500966,42.9995333 L72.1937058,43.0830432 L72.1937058,43.0830432 L72.2379001,43.1657393 L72.2379001,43.1657393 L72.2825256,43.2474678 L72.2825256,43.2474678 L72.3499359,43.3679096 L72.3499359,43.3679096 L72.4174511,43.4853083 L72.4174511,43.4853083 L72.4845519,43.5991443 L72.4845519,43.5991443 L72.5287992,43.6727992 L72.5287992,43.6727992 L72.6154335,43.8140503 L72.6154335,43.8140503 L72.6781757,43.9140811 L72.6781757,43.9140811 L72.7578667,44.038591 L72.7578667,44.038591 L72.8664063,44.203859 L72.8664063,44.203859 L72.996251,44.3951667 L72.996251,44.3951667 L73.0901361,44.5284574 L73.0901361,44.5284574 L76.8813197,47.5599614 L77.6895726,48.5158797 L80.2449971,49.4868141 L80.2449971,49.4868141 L80.4232367,49.5508059 L80.4232367,49.5508059 L80.6149143,49.6172164 L80.6149143,49.6172164 L80.8034723,49.6805689 L80.8034723,49.6805689 L80.963945,49.7330859 L80.963945,49.7330859 L81.1396867,49.7892043 L81.1396867,49.7892043 L81.2648581,49.8283121 L81.2648581,49.8283121 L81.3961069,49.8685627 L81.3961069,49.8685627 L81.6037552,49.9306809 L81.6037552,49.9306809 L81.7489572,49.9729876 L81.7489572,49.9729876 L81.8992444,50.0157961 L81.8992444,50.0157961 L82.0543332,50.0589235 L82.0543332,50.0589235 L82.2139401,50.1021867 L82.2139401,50.1021867 L82.3777816,50.1454024 L82.3777816,50.1454024 L82.5455742,50.1883877 L82.5455742,50.1883877 L82.7170343,50.2309594 C82.7459009,50.2380101 82.7749084,50.2450358 82.8040511,50.2520329 L82.980481,50.2936409 C83.0991187,50.3211095 83.2197289,50.3479971 83.3419336,50.3740597 L83.5263893,50.4125042 L83.5263893,50.4125042 L83.7129533,50.4495281 L83.7129533,50.4495281 L83.9013419,50.4849482 C85.0681154,50.6980506 86.3228021,50.8092251 87.3662179,50.6252428 Z M82.9667398,33.0688143 L81.1226395,33.1593571 C81.0662652,33.1692974 81.0025126,33.1740214 80.9342125,33.1773749 L80.7740581,33.1842296 C80.6821473,33.1885555 80.5864487,33.1952465 80.4924915,33.2118137 L79.2450928,33.4316782 L79.0812467,33.4594828 C79.0452744,33.465371 79.0096048,33.4710295 78.974259,33.4763861 L78.8692141,33.4914776 C78.5051054,33.5406218 78.179032,33.5485145 77.9155254,33.4315805 C77.5201712,33.2406011 77.360371,32.8227069 77.2804267,32.4525255 L77.266335,32.3837426 L77.266335,32.3837426 L77.2538868,32.3164803 L77.2538868,32.3164803 C77.0933959,31.4062916 77.436464,30.0553791 78.4512014,29.8764535 L80.7162041,29.5357279 L82.009817,28.9553215 L82.009817,28.9553215 L82.1163068,28.889988 L82.1163068,28.889988 L82.1933723,28.8444378 L82.1933723,28.8444378 L82.287091,28.7906302 L82.287091,28.7906302 L82.3950655,28.7306906 L82.3950655,28.7306906 L82.4536495,28.6990855 L82.4536495,28.6990855 L82.5464287,28.650381 L82.5464287,28.650381 L82.6441926,28.6009173 L82.6441926,28.6009173 L82.74593,28.551591 L82.74593,28.551591 L82.8154628,28.519226 L82.8154628,28.519226 L82.8860125,28.4875862 C82.8978389,28.4823881 82.9096951,28.4772313 82.921575,28.4721214 L82.9930879,28.4420677 C83.0289362,28.4273661 83.0648849,28.4131855 83.1007654,28.3996755 L83.1723855,28.3735937 C83.2914342,28.3317616 83.4084763,28.2984865 83.5172688,28.2793035 C84.2501347,28.1500795 85.0365945,28.503079 85.6495411,29.0237078 L85.7194828,29.0845064 C86.2496004,29.5560577 86.6371009,30.1493177 86.724769,30.6465082 L86.7453964,30.7673108 L86.7453964,30.7673108 L86.7592451,30.8552289 L86.7592451,30.8552289 L86.7713872,30.9408918 L86.7713872,30.9408918 L86.7783932,30.9967676 L86.7783932,30.9967676 L86.7844299,31.0516713 L86.7844299,31.0516713 L86.7894128,31.1056149 C86.7901508,31.1145261 86.7908414,31.1233979 86.7914828,31.1322304 L86.7947269,31.1847565 L86.7947269,31.1847565 L86.7967063,31.2363526 C86.7973385,31.2619202 86.7975194,31.2871436 86.7971197,31.3120296 L86.7955683,31.3613537 C86.7947959,31.3776464 86.7937635,31.3937912 86.792457,31.40979 L86.7877014,31.4573507 L86.7877014,31.4573507 L86.7812172,31.5040477 C86.713597,31.9281829 86.4174572,32.2449881 85.6003714,32.4962673 L85.5091542,32.5234216 C85.4624982,32.5368708 85.4142607,32.5501296 85.3643941,32.5632048 L85.262475,32.5891122 L85.262475,32.5891122 L85.1561274,32.6145419 C85.1380291,32.6187411 85.1197427,32.6229208 85.1012666,32.6270815 L84.9881182,32.6518173 L84.9881182,32.6518173 L82.9667398,33.0688143 Z M111.771046,60.7843991 C113.636924,60.4553943 115.536193,58.3319456 115.289531,56.9330545 L115.269798,56.8211432 L114.97646,55.4881777 L114.950651,53.3579999 L113.568971,49.1590837 L113.674083,48.1020329 L113.195178,44.7247547 L113.334441,43.2001191 L113.262719,42.4627259 L113.260864,42.4136549 L113.260864,42.4136549 L113.2601,42.3629261 L113.2601,42.3629261 L113.260555,42.3107561 L113.260555,42.3107561 L113.262357,42.2573614 C113.262777,42.2483723 113.263259,42.2393411 113.263805,42.2302725 L113.267871,42.1754469 L113.267871,42.1754469 L113.273608,42.119938 C113.322115,41.7108966 113.515739,41.2642042 114.083141,41.1641559 C114.392331,41.1096373 114.759899,41.1930896 115.109825,41.3265718 L115.187265,41.3570223 L115.187265,41.3570223 L115.263939,41.3889054 C115.276644,41.3943268 115.289309,41.3997988 115.301931,41.4053172 L115.377108,41.4389471 L115.377108,41.4389471 L115.451055,41.4734736 L115.451055,41.4734736 L115.523587,41.508682 L115.523587,41.508682 L115.594519,41.544358 L115.594519,41.544358 L115.663665,41.5802871 L115.663665,41.5802871 L115.730839,41.6162548 L115.730839,41.6162548 L115.795858,41.6520467 L115.795858,41.6520467 L115.858534,41.6874484 L115.858534,41.6874484 L115.947751,41.73935 L115.947751,41.73935 L116.030657,41.7891671 L116.030657,41.7891671 L116.130297,41.8510965 L116.130297,41.8510965 L116.21612,41.9063179 L116.21612,41.9063179 L116.286642,41.9531155 L116.286642,41.9531155 L116.39225,42.0262959 L116.39225,42.0262959 L118.450144,42.1249966 L118.613272,42.154674 L118.613272,42.154674 L118.837725,42.1924806 L118.837725,42.1924806 L119.059442,42.227262 L119.059442,42.227262 L119.229835,42.252431 L119.229835,42.252431 L119.368411,42.271939 L119.368411,42.271939 L119.566342,42.29833 L119.566342,42.29833 L119.670523,42.3115266 L119.670523,42.3115266 L119.832782,42.3311207 L119.832782,42.3311207 L120.00166,42.3502581 L120.00166,42.3502581 L120.117608,42.3626428 L120.117608,42.3626428 L120.2961,42.3804796 L120.2961,42.3804796 L120.47951,42.3972124 L120.47951,42.3972124 L120.667201,42.4125986 L120.667201,42.4125986 L120.794391,42.4219881 L120.794391,42.4219881 L120.92301,42.4305992 L120.92301,42.4305992 L121.052871,42.4383601 C121.074607,42.4395788 121.096387,42.440759 121.118207,42.4418993 L121.249575,42.4482501 C121.271539,42.4492247 121.293535,42.4501564 121.315559,42.4510437 L121.448008,42.4558225 C121.470129,42.4565261 121.49227,42.4571823 121.514427,42.4577897 L121.647533,42.4608347 C121.714152,42.4620517 121.780846,42.4628016 121.84751,42.4630439 L121.980766,42.4628397 C122.468987,42.4595214 122.951745,42.4274549 123.387117,42.3506871 C128.362793,41.4733411 131.850917,36.1272705 130.953066,31.035307 C130.566102,28.8407268 129.778238,27.2516549 129.123126,26.2427101 L129.049558,26.1309668 C129.025243,26.0945443 129.001146,26.0589465 128.977296,26.024172 L128.906513,25.9223174 L128.906513,25.9223174 L128.83738,25.8253948 C128.826005,25.8096516 128.814706,25.7941136 128.803486,25.7787805 L128.737152,25.6892406 L128.737152,25.6892406 L128.672898,25.6046123 C128.662371,25.5909165 128.651939,25.5774249 128.641604,25.5641375 L128.580794,25.4868612 L128.580794,25.4868612 L128.522494,25.4144761 L128.522494,25.4144761 L128.466877,25.3469739 L128.466877,25.3469739 L128.414114,25.2843464 L128.414114,25.2843464 L128.364379,25.2265855 L128.364379,25.2265855 L128.317842,25.173683 L128.317842,25.173683 L128.254411,25.1034208 L128.254411,25.1034208 L128.167126,25.0104932 L128.167126,25.0104932 L128.115434,24.9578359 L128.115434,24.9578359 L128.065625,24.9094733 L128.065625,24.9094733 L126.003549,21.8113506 L124.311848,21.4749941 L122.551081,20.7469481 L121.144746,20.7064461 L121.099706,20.696586 L121.099706,20.696586 L121.027734,20.6824798 L121.027734,20.6824798 L120.96496,20.6713816 L120.96496,20.6713816 L120.894767,20.6600109 L120.894767,20.6600109 L120.817266,20.648523 L120.817266,20.648523 L120.702752,20.633291 L120.702752,20.633291 L120.640777,20.6258149 L120.640777,20.6258149 L120.542008,20.6149048 L120.542008,20.6149048 L120.399648,20.6011666 L120.399648,20.6011666 L120.285019,20.5916703 L120.285019,20.5916703 L120.163774,20.5830383 L120.163774,20.5830383 L120.079324,20.5778403 L120.079324,20.5778403 L119.947299,20.570993 L119.947299,20.570993 L119.808951,20.5654234 L119.808951,20.5654234 L119.71326,20.5624966 L119.71326,20.5624966 L119.61484,20.5602523 L119.61484,20.5602523 L119.513724,20.5587366 L119.513724,20.5587366 L119.409944,20.5579954 L119.409944,20.5579954 L119.303532,20.5580745 L119.303532,20.5580745 L119.139051,20.5598319 C119.120455,20.5601412 119.101752,20.5604894 119.082944,20.5608776 L118.968832,20.5636934 L118.968832,20.5636934 L118.852218,20.5675132 L118.852218,20.5675132 L118.733135,20.572383 L118.733135,20.572383 L118.611615,20.5783488 L118.611615,20.5783488 L118.48769,20.5854564 L118.48769,20.5854564 L118.361394,20.5937517 L118.361394,20.5937517 L118.232758,20.6032807 L118.232758,20.6032807 L118.101815,20.6140893 L118.101815,20.6140893 L117.968597,20.6262234 C117.946206,20.6283588 117.923722,20.6305513 117.901145,20.6328019 L117.764576,20.6470104 L117.764576,20.6470104 L117.625814,20.6626592 L117.625814,20.6626592 L117.48489,20.6797943 L117.48489,20.6797943 L117.341838,20.6984616 L117.341838,20.6984616 L117.196689,20.7187069 L117.196689,20.7187069 L117.049477,20.7405763 L117.049477,20.7405763 L116.900234,20.7641156 C116.875192,20.7681805 116.850068,20.772317 116.82486,20.7765259 L116.672631,20.8026562 L116.672631,20.8026562 C115.261348,21.0515034 114.33738,21.3987087 113.671551,21.7409397 L113.571122,21.7935374 C113.554713,21.8022926 113.538466,21.8110409 113.522377,21.8197808 L113.427709,21.872104 L113.427709,21.872104 L113.336651,21.9241397 L113.336651,21.9241397 L113.249018,21.9758042 L113.249018,21.9758042 L113.164623,22.0270141 L113.164623,22.0270141 L113.083281,22.0776855 L113.083281,22.0776855 L113.004807,22.1277349 L113.004807,22.1277349 L112.929016,22.1770788 L112.929016,22.1770788 L112.819952,22.2495886 L112.819952,22.2495886 L112.458004,22.4957052 L112.458004,22.4957052 L112.396995,22.5363941 L112.396995,22.5363941 L112.337,22.5756249 L112.337,22.5756249 L112.277833,22.6133139 C112.26803,22.6194623 112.258254,22.6255429 112.248502,22.6315541 L112.190228,22.6667737 L112.190228,22.6667737 L112.132319,22.7002426 L112.132319,22.7002426 L112.074589,22.731877 C111.911099,22.8188301 111.74753,22.8826872 111.5649,22.9148898 C110.982293,23.017619 110.632729,22.762206 110.347251,22.3826228 L110.306887,22.3275772 L110.306887,22.3275772 L110.267284,22.2709938 L110.267284,22.2709938 L110.228335,22.2130242 L110.228335,22.2130242 L110.189929,22.15382 L110.189929,22.15382 L110.151957,22.0935327 L110.151957,22.0935327 L110.076878,21.9703153 L110.076878,21.9703153 L109.883857,21.6451888 L109.883857,21.6451888 L109.830772,21.5580035 L109.830772,21.5580035 L109.77654,21.4714967 L109.77654,21.4714967 L109.739607,21.4143968 L109.739607,21.4143968 L109.701953,21.3578903 L109.701953,21.3578903 L109.663495,21.3020938 C109.657013,21.29286 109.650494,21.2836607 109.643937,21.2744983 L109.604112,21.2199857 C109.597393,21.2109805 109.59063,21.202017 109.583824,21.1930977 L109.542444,21.1401316 L109.542444,21.1401316 L109.499922,21.0883424 C109.485548,21.0712885 109.47097,21.0544502 109.456174,21.0378469 L109.411114,20.9887617 C109.060417,20.6181466 108.586718,20.382169 107.819094,20.5175217 C107.29891,20.6092442 106.749257,21.0235797 106.333248,21.5913711 L106.279757,21.6662872 C106.262189,21.6915401 106.244886,21.7170691 106.227863,21.7428604 L106.177645,21.8210073 C105.782824,22.4522548 105.556685,23.2265682 105.684555,23.9517533 L105.694421,24.0077089 L106.007492,25.4525858 L105.835971,26.4636507 L106.097814,28.6099048 L106.109205,31.3195787 L106.839325,35.4602963 L106.638968,37.6303534 L106.875763,38.9732888 L106.7365,40.4979244 L107.308756,43.7433517 L107.632455,46.5710433 L107.639533,46.6809514 L107.639533,46.6809514 L107.652423,46.847364 L107.652423,46.847364 L107.673393,47.0866131 L107.673393,47.0866131 L107.70474,47.4152768 L107.70474,47.4152768 L107.766929,48.0250429 L107.766929,48.0250429 L107.849235,48.7950319 L107.849235,48.7950319 L108.024842,50.3879967 L108.024842,50.3879967 L108.23086,52.2483714 L108.23086,52.2483714 L108.318299,53.0548095 L108.318299,53.0548095 L108.375095,53.5919702 L108.375095,53.5919702 L108.416089,53.990961 L108.416089,53.990961 L108.443711,54.2223556 L108.443711,54.2223556 L108.499791,54.7198502 L108.499791,54.7198502 L108.577174,55.458542 L108.577174,55.458542 L108.670723,56.4269631 L108.670723,56.4269631 L109.119267,58.3095153 L109.319254,59.7743318 L109.396458,59.8284449 L109.396458,59.8284449 L109.496747,59.8963545 L109.496747,59.8963545 L109.606877,59.9686082 L109.606877,59.9686082 L109.710212,60.0344136 L109.710212,60.0344136 L109.82543,60.1055995 L109.82543,60.1055995 L109.918723,60.1615577 L109.918723,60.1615577 L110.017196,60.218968 L110.017196,60.218968 L110.085404,60.2577151 L110.085404,60.2577151 L110.155437,60.2966076 L110.155437,60.2966076 L110.227102,60.3354458 L110.227102,60.3354458 L110.300211,60.3740296 L110.300211,60.3740296 L110.37457,60.4121592 L110.37457,60.4121592 L110.44999,60.4496346 L110.44999,60.4496346 L110.526279,60.4862558 L110.526279,60.4862558 L110.603246,60.521823 C110.61612,60.5276519 110.629014,60.5334286 110.641924,60.5391488 L110.719551,60.57276 C110.74547,60.5837159 110.771423,60.5944127 110.797377,60.6048173 L110.875213,60.6351208 L110.875213,60.6351208 L110.952868,60.6634705 C111.249951,60.7681441 111.538821,60.8253466 111.771046,60.7843991 Z M121.572047,36.0862472 L119.869662,35.8099571 L116.58506,36.2738278 L116.530101,36.2599516 L116.530101,36.2599516 L116.465532,36.242092 L116.465532,36.242092 L116.417458,36.227881 L116.417458,36.227881 L116.338267,36.2029703 L116.338267,36.2029703 L116.281025,36.183887 L116.281025,36.183887 L116.220442,36.1627586 L116.220442,36.1627586 L116.156703,36.1395303 L116.156703,36.1395303 L116.089995,36.1141472 L116.089995,36.1141472 L116.020503,36.0865542 L116.020503,36.0865542 L115.948413,36.0566965 L115.948413,36.0566965 L115.873911,36.0245192 C115.861304,36.0189599 115.848604,36.0133018 115.835814,36.0075435 L115.758044,35.9717838 C115.744914,35.9656206 115.731704,35.9593551 115.718416,35.952986 L115.637795,35.9135203 L115.637795,35.9135203 L115.555505,35.8715152 C114.627981,35.3880769 113.423217,34.41941 113.106178,32.621396 C112.613271,29.8259762 115.821385,27.5885461 118.799877,27.0633576 C121.892927,26.5179694 124.396707,28.324705 124.938906,31.3996668 C125.390606,33.9613895 123.622768,35.2235447 122.389987,35.7804609 L122.297431,35.821412 L122.297431,35.821412 L122.207201,35.8597089 C122.192372,35.8658737 122.17765,35.8719304 122.163042,35.8778801 L122.076804,35.9123042 C122.062673,35.9178309 122.048667,35.9232529 122.034792,35.9285716 L121.953148,35.9592532 C121.939817,35.9641633 121.926627,35.9689725 121.913584,35.9736819 L121.800325,36.0134061 L121.800325,36.0134061 L121.729681,36.0369931 L121.729681,36.0369931 L121.63168,36.0681746 L121.63168,36.0681746 L121.572047,36.0862472 L121.572047,36.0862472 Z M146.256857,26.8690239 C147.810939,26.5949974 147.926632,21.9506926 147.808522,18.642307 L147.796801,18.3362338 C147.794745,18.2859319 147.792642,18.2359998 147.790495,18.1864591 L147.777133,17.8940864 C147.774832,17.8461986 147.772496,17.7987458 147.770131,17.7517497 L147.755624,17.4754285 C147.753159,17.4303465 147.750674,17.3857648 147.748173,17.3417052 L147.733017,17.0837863 L147.733017,17.0837863 L147.717704,16.8394416 L147.717704,16.8394416 L147.702455,16.6097161 L147.702455,16.6097161 L147.68749,16.3956544 L147.68749,16.3956544 L147.666058,16.1062174 L147.666058,16.1062174 L147.646506,15.8579013 L147.646506,15.8579013 L147.62012,15.544999 L147.62012,15.544999 L147.601671,15.3430663 L147.601671,15.3430663 L147.574196,13.2059276 L147.170112,12.2351327 L146.636624,8.21890891 L146.707508,7.72799533 L146.707508,7.72799533 L146.765645,7.30820988 L146.765645,7.30820988 L146.824669,6.86634035 L146.824669,6.86634035 L146.887897,6.37258427 L146.887897,6.37258427 L146.933832,5.9974932 L146.933832,5.9974932 L146.979068,5.61070696 L146.979068,5.61070696 L147.013956,5.29699517 L147.013956,5.29699517 L147.030758,5.13979536 L147.030758,5.13979536 L147.054945,4.90467407 L147.054945,4.90467407 L147.070282,4.74895352 L147.070282,4.74895352 L147.091916,4.5178983 L147.091916,4.5178983 L147.105314,4.36611992 L147.105314,4.36611992 L147.117804,4.21660803 L147.117804,4.21660803 L147.12931,4.0697567 L147.12931,4.0697567 L147.144556,3.85533028 L147.144556,3.85533028 L147.153269,3.7168544 L147.153269,3.7168544 L147.160733,3.58241832 L147.160733,3.58241832 L147.166871,3.4524161 C147.167779,3.43114044 147.168629,3.41006595 147.169419,3.38920084 L147.173426,3.2665883 C147.182126,2.94667177 147.174664,2.68455831 147.144568,2.51387508 C146.877267,0.997938518 145.09515,-0.193003521 143.852788,0.0260584037 C142.2716,0.304864489 140.841842,1.77268971 141.119042,3.34477207 L141.455643,5.25372922 L141.211366,9.81233399 L141.584638,11.5990422 L141.494016,15.3779648 L142.097917,18.8028585 L141.496128,22.3245652 C141.499057,22.6713973 141.511886,23.0743753 141.571286,23.4112501 C141.937587,25.4886446 143.489778,27.3569346 146.256857,26.8690239 Z M146.704601,38.7854687 C149.022473,38.3767654 150.207567,35.8413732 149.809725,33.5850955 C149.421828,31.3852248 147.291341,29.5507806 144.916935,29.9694523 C142.316396,30.4279975 140.260265,32.6516914 140.687946,35.0771899 C140.775619,35.5744066 141.033162,36.0573078 141.292805,36.4500697 L141.348414,36.5328257 L141.348414,36.5328257 L141.40372,36.6126565 L141.40372,36.6126565 L141.458357,36.6893963 L141.458357,36.6893963 L141.511958,36.7628794 L141.511958,36.7628794 L141.589613,36.866635 L141.589613,36.866635 L141.662874,36.9621302 L141.662874,36.9621302 L141.859437,37.2136057 L141.859437,37.2136057 L141.887203,37.2503173 L141.887203,37.2503173 L142.5185,38.1858952 L144.342509,38.6434777 L144.342509,38.6434777 L144.435555,38.664443 L144.435555,38.664443 L144.519666,38.6821914 L144.519666,38.6821914 L144.619732,38.7020238 L144.619732,38.7020238 L144.734282,38.72314 L144.734282,38.72314 L144.861851,38.74474 L144.861851,38.74474 L144.930059,38.7554715 L144.930059,38.7554715 L145.037384,38.7712017 L145.037384,38.7712017 L145.150174,38.7861916 L145.150174,38.7861916 L145.228098,38.7956069 L145.228098,38.7956069 L145.307992,38.8044431 L145.307992,38.8044431 L145.389674,38.8126003 L145.389674,38.8126003 L145.472959,38.8199783 L145.472959,38.8199783 L145.557664,38.8264774 L145.557664,38.8264774 L145.643606,38.8319973 L145.643606,38.8319973 L145.730601,38.8364382 L145.730601,38.8364382 L145.818466,38.8397 L145.818466,38.8397 L145.907018,38.8416828 C145.96624,38.842556 146.025798,38.8425099 146.085446,38.841411 L146.174956,38.8389566 C146.35399,38.8324018 146.53274,38.8157726 146.704601,38.7854687 Z" id="beep-text" fill="#000000" fill-rule="nonzero"></path>
    </g>
</svg>