<?xml version="1.0" encoding="UTF-8"?>
<svg width="28px" height="24px" viewBox="0 0 28 24" version="1.1" xmlns="http://www.w3.org/2000/svg" xmlns:xlink="http://www.w3.org/1999/xlink">
    <title>chime</title>
    <g id="Page-1" stroke="none" stroke-width="1" fill="none" fill-rule="evenodd">
        <g id="Artboard" transform="translate(-120.000000, -6.000000)" fill="#2C2E30">
            <path d="M134,6 C139.285015,6 138.120423,13.5709192 141.232841,16.5394727 C144.345259,19.5080261 148,19.446728 148,23.0716625 C148,25.945675 143.635613,28.0997796 137.698075,28.7342597 C137.912169,28.5078882 138.105608,28.2622125 138.275565,27.9999078 C142.817347,27.3700121 146.218182,25.7889928 146.218182,24.0262079 C146.218182,21.7984041 141.149536,20.1029918 134.509502,20.0202806 L134.510022,21.3225059 C136.448111,21.5726492 137.945455,23.2291124 137.945455,25.2352989 C137.945455,27.4143132 136.179014,29.1807534 134,29.1807534 C131.820986,29.1807534 130.054545,27.4143132 130.054545,25.2352989 C130.054545,23.2291124 131.551889,21.5726492 133.489978,21.3225059 L133.490498,20.0202806 C126.850464,20.1029918 121.781818,21.7984041 121.781818,24.0262079 C121.781818,25.7889928 125.182653,27.3700121 129.725441,28.0001572 C129.894392,28.2622125 130.087831,28.5078882 130.301776,28.7339583 C124.364387,28.0997851 120,25.9456915 120,23.0716625 C120,19.4469352 123.655273,19.5080261 126.767091,16.5400261 C127.947436,15.414233 128.512602,13.6260295 129.047877,11.8399088 L129.19356,11.3533359 C130.01988,8.60203989 130.901888,6 134,6 Z" id="chime"></path>
        </g>
    </g>
</svg>