<?xml version="1.0" encoding="UTF-8"?>
<svg width="10px" height="7px" viewBox="0 0 10 7" version="1.1" xmlns="http://www.w3.org/2000/svg" xmlns:xlink="http://www.w3.org/1999/xlink">
    <title>double_prime</title>
    <g id="double_prime" stroke="none" stroke-width="1" fill="none" fill-rule="evenodd">
        <path d="M4.38077469,0 C4.44397272,0 4.50584933,0.0180957877 4.55908883,0.0521478954 C4.69106394,0.136559478 4.74296713,0.298974912 4.69308656,0.440617943 L4.65956379,0.509251128 L0.607999209,6.84375734 C0.538170926,6.95293188 0.4110433,7.0113011 0.282731982,6.99310014 C0.12439204,6.97063963 0.00821651391,6.8395853 -0.00115697154,6.68594364 L0.00155316871,6.61896507 L0.900102773,0.284458857 C0.919943304,0.144589043 1.02541048,0.0355058724 1.15892925,0.00719373818 L1.22775972,0 L4.38077469,0 Z M8.68295556,9.59232693e-14 C8.74615359,9.59232693e-14 8.80803019,0.0180957877 8.8612697,0.0521478954 C8.99324481,0.136559478 9.04514799,0.298974912 8.99526743,0.440617943 L8.96174465,0.509251128 L4.91018007,6.84375734 C4.84035179,6.95293188 4.71322416,7.0113011 4.58491285,6.99310014 C4.4265729,6.97063963 4.31039738,6.8395853 4.30102389,6.68594364 L4.30373403,6.61896507 L5.20228364,0.284458857 C5.22212417,0.144589043 5.32759135,0.0355058724 5.46111012,0.00719373818 L5.52994058,9.59232693e-14 L8.68295556,9.59232693e-14 Z" id="Shape" fill="#2C2E30"></path>
    </g>
</svg>