<?xml version="1.0" encoding="UTF-8"?>
<svg width="386px" height="419px" viewBox="0 0 386 419" version="1.1" xmlns="http://www.w3.org/2000/svg" xmlns:xlink="http://www.w3.org/1999/xlink">
    <title>face</title>
    <defs>
        <path d="M55.5674704,84.5043617 L264.559413,84.5043617 C265.367051,84.5043617 266.14161,84.8251946 266.712697,85.3962808 L275.252019,93.9356029 C275.719872,94.4034552 276.02262,95.0109561 276.11446,95.666195 C278.725967,114.298214 280.031721,132.930233 280.031721,151.562252 C280.031721,170.194266 278.725968,188.826279 276.114462,207.458292 C276.022632,208.113534 275.719883,208.721037 275.252029,209.188891 L266.712697,217.728224 C266.14161,218.29931 265.367051,218.620143 264.559413,218.620143 L55.5674704,218.620143 C54.7598325,218.620143 53.9852734,218.29931 53.4141872,217.728224 L44.8748652,209.188902 C44.4070117,208.72105 44.1042637,208.113549 44.0124239,207.45831 C41.4009164,188.826291 40.0951626,170.194271 40.0951626,151.562252 C40.0951626,132.930239 41.4009155,114.298226 44.0124214,95.6662127 C44.1042515,95.0109704 44.4070005,94.4034675 44.8748548,93.9356132 L53.4141872,85.3962808 C53.9852734,84.8251946 54.7598325,84.5043617 55.5674704,84.5043617 Z" id="path-1"></path>
    </defs>
    <g id="face" stroke="none" stroke-width="1" fill="none" fill-rule="evenodd">
        <path d="M381.682523,198.636003 C383.768541,198.636003 385.662173,199.690768 385.662173,209.547978 C385.662173,219.306616 383.806225,220.437977 381.745044,220.459628 L360.158605,220.459953 L360.158605,198.636003 L381.682523,198.636003 Z" id="Rectangle-Copy" fill="#E5E1E1"></path>
        <path d="M381.555639,198.636003 C383.515306,198.636003 384.773989,201.124022 384.773989,209.547978 C384.773989,217.887695 383.539833,220.409599 381.614203,220.459203 L360.158605,220.459953 L360.158605,198.636003 L381.555639,198.636003 Z" id="Rectangle-Copy-3" fill="#9D9B9A"></path>
        <path d="M355.295706,99.0232037 C357.73715,97.669889 360.972876,96.9643419 367.585664,108.894127 C374.132324,120.704614 371.930808,123.145721 369.517192,124.506482 L344.252729,138.511142 L330.104439,112.986951 L355.295706,99.0232037 Z" id="Rectangle" fill="#E5E1E1"></path>
        <path d="M355.295706,99.0232037 C355.32234,99.0084403 355.349144,98.9931471 355.376162,98.9774599 L355.62624,98.829308 L355.713251,98.778806 C357.036804,98.0290827 359.139091,97.581876 365.921043,109.816842 C372.77835,122.187751 371.175494,123.630697 369.827908,124.346487 L369.739518,124.392737 L369.567179,124.481513 L369.48434,124.525338 L344.252729,138.511142 L330.104439,112.986951 L355.295706,99.0232037 Z" id="Rectangle-Copy-2" fill="#9D9B9A"></path>
        <path d="M355.295706,319.945551 C357.73715,321.298866 360.972876,322.004413 367.585664,310.074628 C374.132324,298.26414 371.930808,295.823034 369.517192,294.462273 L344.252729,280.457612 L330.104439,305.981804 L355.295706,319.945551 Z" id="Rectangle" fill="#E5E1E1"></path>
        <path d="M355.295706,319.945551 C355.32234,319.960314 355.349144,319.975608 355.376162,319.991295 L355.457899,320.039402 L355.62624,320.139447 L355.713251,320.189949 C357.036804,320.939672 359.139091,321.386879 365.921043,309.151913 C372.77835,296.781003 371.175494,295.338058 369.827908,294.622267 L369.739518,294.576018 L369.567179,294.487242 L369.48434,294.443416 L344.252729,280.457612 L330.104439,305.981804 L355.295706,319.945551 Z" id="Rectangle-Copy-2" fill="#9D9B9A"></path>
        <path d="M16.7251231,99.0232037 C14.2836787,97.669889 11.0479528,96.9643419 4.43516495,108.894127 C-2.11149503,120.704614 0.0900207798,123.145721 2.50363681,124.506482 L27.7680999,138.511142 L41.9163902,112.986951 L16.7251231,99.0232037 Z" id="Rectangle" fill="#E5E1E1"></path>
        <path d="M16.7251231,99.0232037 C16.6984892,99.0084403 16.6716846,98.9931471 16.6446667,98.9774599 L16.3945885,98.829308 L16.3075779,98.778806 L16.227199,98.7342846 C14.8980617,98.0162673 12.7460993,97.8265753 6.09978612,109.816842 C-0.757521095,122.187751 0.845334954,123.630697 2.19292142,124.346487 L2.28131084,124.392737 L2.45364964,124.481513 L2.53648872,124.525338 L27.7680999,138.511142 L41.9163902,112.986951 L16.7251231,99.0232037 Z" id="Rectangle-Copy-2" fill="#9D9B9A"></path>
        <path d="M69.5321174,0 L302.490088,0 L363.140365,139.571769 C368.215702,162.876025 370.753371,186.18028 370.753371,209.484536 C370.753371,232.788792 368.215702,256.093048 363.140365,279.397304 L302.490088,418.969073 L69.5321174,418.969073 L8.88183982,279.397304 C3.80650278,256.093048 1.26883426,232.788792 1.26883426,209.484536 C1.26883426,186.18028 3.80650278,162.876025 8.88183982,139.571769 L69.5321174,0 Z" id="Rectangle-Copy-12" fill="#CAC7C3"></path>
        <path d="M324.544699,50.753291 C347.483708,103.663715 358.953212,156.574138 358.953212,209.484562 C358.953212,262.394986 347.4837,315.305409 324.544677,368.215833 L47.4775036,368.215833 C24.5384965,315.305409 13.0689929,262.395003 13.0689929,209.484616 C13.0689929,156.574228 24.5384735,103.663787 47.4774347,50.753291 L324.544699,50.753291 Z" id="Rectangle-Copy-13" fill="#EEEEEC"></path>
        <polygon id="Rectangle-Copy-14" fill="#D1D0CD" points="324.544677 368.215777 302.490088 418.969073 69.5321174 418.969073 47.4775036 368.215777"></polygon>
        <polygon id="Rectangle-Copy-15" fill="#E2E1DE" points="69.5321174 0 302.490088 0 324.544699 50.7534539 47.4774347 50.7534539"></polygon>
        <g id="Face" transform="translate(26.011102, 66.613799)">
            <path d="M46.3124505,12.1808089 C71.9429025,0 136.975407,0 160,0 C183.024594,0 248.057098,0 273.68755,12.1808089 C299.318002,24.3616178 320,75.4974423 320,142.870738 C320,210.244033 299.318002,261.379858 273.68755,273.560666 C248.057098,285.741475 218.857596,285.741475 160,285.741475 C101.142404,285.741475 71.9429025,285.741475 46.3124505,273.560666 C20.6819984,261.379858 0,210.244033 0,142.870738 C0,75.4974423 20.6819984,24.3616178 46.3124505,12.1808089 Z" id="Face-Black-Background" fill="#000000"></path>
            <g id="Gray-Area-Around-Display">
                <path stroke="#BA9D5A" stroke-width="8.88183982" d="M264.559413,80.0634418 C266.544856,80.0634418 268.448981,80.852156 269.852901,82.2560762 L269.852901,82.2560762 L278.392219,90.7953945 C279.54236,91.9455324 280.286617,93.4389735 280.51239,95.0497708 C283.152698,113.887265 284.472641,132.724768 284.472641,151.562252 C284.472641,170.399731 283.152698,189.237228 280.512402,208.074649 C280.28665,209.685473 279.54239,211.178939 278.392234,212.329096 L278.392234,212.329096 L269.852901,220.868428 C268.448981,222.272349 266.544856,223.061063 264.559413,223.061063 L264.559413,223.061063 L55.5674704,223.061063 C53.5820274,223.061063 51.6779029,222.272349 50.2739827,220.868428 L50.2739827,220.868428 L41.7346644,212.32911 C40.5845237,211.178972 39.8402667,209.685531 39.6144936,208.074734 C36.9741863,189.23724 35.6542427,170.399736 35.6542427,151.562252 C35.6542427,132.724774 36.9741854,113.887277 39.6144817,95.0498555 C39.8402335,93.4390321 40.5844934,91.9455654 41.7346502,90.7954087 L41.7346502,90.7954087 L50.2739827,82.2560762 C51.6779029,80.852156 53.5820274,80.0634418 55.5674704,80.0634418 L55.5674704,80.0634418 Z" fill="#5B5B57" fill-rule="evenodd"></path>
                <path stroke="#000000" stroke-width="5.07533704" d="M264.559413,81.9666932 C266.040083,81.9666932 267.460108,82.5548868 268.507099,83.6018782 L268.507099,83.6018782 L277.046419,92.1411981 C277.904151,92.9989279 278.45919,94.1126803 278.627563,95.3139526 C281.255527,114.063386 282.56939,132.812825 282.56939,151.562252 C282.56939,170.311674 281.255528,189.061107 278.627571,207.810496 C278.459214,209.011785 277.904173,210.125553 277.046432,210.983294 L277.046432,210.983294 L268.507099,219.522627 C267.460108,220.569618 266.040083,221.157812 264.559413,221.157812 L264.559413,221.157812 L55.5674704,221.157812 C54.086801,221.157812 52.666776,220.569618 51.6197846,219.522627 L51.6197846,219.522627 L43.0804647,210.983307 C42.2227328,210.125577 41.667694,209.011824 41.4993209,207.810552 C38.8713563,189.061119 37.5574941,170.31168 37.5574941,151.562252 C37.5574941,132.812831 38.8713555,114.063398 41.499313,95.3140086 C41.6676698,94.11272 42.2227108,92.9989521 43.0804522,92.1412106 L43.0804522,92.1412106 L51.6197846,83.6018782 C52.666776,82.5548868 54.086801,81.9666932 55.5674704,81.9666932 L55.5674704,81.9666932 Z"></path>
            </g>
            <path d="M73.0431454,103.790642 L246.956854,103.790642 C256.180809,103.790642 263.798731,110.995152 264.312861,120.204768 C264.895194,130.636115 265.18636,141.067463 265.18636,151.498811 C265.18636,161.930158 264.895194,172.361506 264.312861,182.792853 C263.798732,192.002469 256.18081,199.206979 246.956855,199.206979 L73.0431459,199.206979 C63.819191,199.206979 56.2012692,192.002469 55.6871397,182.792854 C55.1048066,172.361506 54.81364,161.930158 54.81364,151.498811 C54.81364,141.067463 55.1048066,130.636116 55.6871397,120.204768 C56.2012688,110.995153 63.8191905,103.790642 73.0431454,103.790642 Z" id="Display" fill="#171811" opacity="0.400000006"></path>
            <path d="M247.168914,107.089612 C254.947326,107.089612 261.252974,113.39526 261.252974,121.173672 L261.252974,132.339413 C261.252974,134.581838 259.435129,136.399683 257.192705,136.399683 L217.097542,136.399683 C214.855117,136.399683 213.037272,134.581838 213.037272,132.339413 L213.037272,111.149881 C213.037272,108.907456 214.855117,107.089612 217.097542,107.089612 L247.168914,107.089612 Z M113.180016,107.089612 C115.422441,107.089612 117.240286,108.907456 117.240286,111.149881 L117.240286,111.149881 L117.240286,132.339413 C117.240286,134.581838 115.422441,136.399683 113.180016,136.399683 L113.180016,136.399683 L62.8072959,136.399683 C60.5648709,136.399683 58.7470262,134.581838 58.7470262,132.339413 L58.7470262,132.339413 L58.7470262,121.173672 C58.7470262,113.39526 65.0526748,107.089612 72.8310865,107.089612 L72.8310865,107.089612 Z M206.312451,107.089612 C208.554876,107.089612 210.37272,108.907456 210.37272,111.149881 L210.37272,132.339413 C210.37272,134.581838 208.554876,136.399683 206.312451,136.399683 L174.845361,136.399683 C172.602936,136.399683 170.785091,134.581838 170.785091,132.339413 L170.785091,111.149881 C170.785091,108.907456 172.602936,107.089612 174.845361,107.089612 L206.312451,107.089612 Z M164.06027,107.089612 C166.302695,107.089612 168.120539,108.907456 168.120539,111.149881 L168.120539,132.339413 C168.120539,134.581838 166.302695,136.399683 164.06027,136.399683 L123.965107,136.399683 C121.722682,136.399683 119.904838,134.581838 119.904838,132.339413 L119.904838,111.149881 C119.904838,108.907456 121.722682,107.089612 123.965107,107.089612 L164.06027,107.089612 Z" id="status-icons" fill="#A7A398"></path>
            <path d="M68.21103,139.698652 L251.788972,139.698652 C258.389227,139.698654 263.887231,144.758791 264.433742,151.336381 C264.935488,157.375192 265.18636,163.414004 265.18636,169.452815 C265.18636,173.933028 265.048275,178.41324 264.772104,182.893452 C264.206986,192.061117 256.607073,199.206979 247.422007,199.206979 L72.5779927,199.206979 C63.3929262,199.206978 55.7930126,192.061116 55.2278962,182.89345 C54.9517254,178.413239 54.81364,173.933027 54.81364,169.452815 C54.81364,163.414004 55.0645128,157.375193 55.5662584,151.336381 C56.1127693,144.75879 61.610774,139.698652 68.21103,139.698652 Z" id="lcd" fill="#B3B3A3"></path>
            <path d="M240.531826,277.620918 C240.742092,277.620849 240.912546,277.791302 240.912546,278.001568 C240.912546,278.194758 240.767852,278.357323 240.575964,278.37972 C222.276782,280.515566 202.922831,281.610292 182.514113,281.663898 L176.321968,281.669475 C175.964155,281.670287 175.605087,281.671042 175.244754,281.671746 L173.067523,281.675369 L170.859554,281.677925 L168.620445,281.679598 L166.349797,281.680577 L156.423783,281.681096 L152.922649,281.680329 L149.495186,281.678246 L147.25044,281.675801 L145.037389,281.672285 C144.671166,281.671599 144.306245,281.67086 143.942619,281.670064 L137.716057,281.664575 C117.212349,281.612187 97.769675,280.515161 79.3880353,278.373496 C79.1833154,278.343438 79.0361822,278.157498 79.0601175,277.952065 C79.0821124,277.763285 79.2420305,277.620918 79.4320873,277.620918 L240.531826,277.620918 Z M259.264761,272.038065 C259.839586,272.038065 260.305574,272.504053 260.305574,273.078878 C260.305574,273.528859 260.016399,273.927885 259.588779,274.06797 L255.317005,275.467362 C254.041946,275.88506 252.708705,276.097874 251.366973,276.097874 L172.191998,276.097874 C171.070913,276.097874 170.162094,275.189055 170.162094,274.06797 C170.162094,272.946884 171.070913,272.038065 172.191998,272.038065 L259.264761,272.038065 Z M147.772475,272.038065 C148.89356,272.038065 149.802379,272.946884 149.802379,274.06797 C149.802379,275.189055 148.89356,276.097874 147.772475,276.097874 L68.5975126,276.097874 C67.2557824,276.097874 65.9225436,275.88506 64.6474867,275.467364 L60.3757005,274.06797 C59.82944,273.88902 59.5316756,273.301121 59.7106251,272.754861 C59.8507096,272.32724 60.2497356,272.038065 60.6997172,272.038065 L147.772475,272.038065 Z M272.37577,266.457505 C272.975509,266.457505 273.461694,266.94369 273.461694,267.54343 C273.461694,267.933327 273.252667,268.293298 272.914039,268.486562 L272.282184,268.847178 C270.366404,269.940562 268.198677,270.515619 265.992844,270.515619 L54.0071344,270.515619 C51.8013089,270.515619 49.633589,269.940566 47.7178143,268.847189 L47.0859361,268.486562 C46.5650584,268.189285 46.3837942,267.526039 46.6810712,267.005162 C46.8743346,266.666533 47.234306,266.457505 47.6242038,266.457505 L272.37577,266.457505 Z M279.835834,260.874545 C280.482727,260.874545 281.007138,261.398955 281.007138,262.045849 C281.007138,262.371908 280.871227,262.683211 280.632099,262.904869 C279.224079,264.210027 277.37504,264.935194 275.455155,264.935195 L44.5449651,264.935253 C42.6250502,264.935253 40.7759817,264.210076 39.3679381,262.904899 C38.893507,262.465128 38.8654093,261.724021 39.3051801,261.24959 C39.5268418,261.010458 39.8381492,260.874545 40.1642135,260.874545 L279.835834,260.874545 Z M284.95702,255.291194 C285.642055,255.291194 286.197386,255.846524 286.197386,256.531559 C286.197386,256.819854 286.096961,257.099146 285.913374,257.321429 C284.851459,258.607166 283.270968,259.351665 281.603401,259.351665 L38.3965997,259.351665 C36.7290324,259.351665 35.1485409,258.607166 34.0866267,257.321429 C33.6503935,256.79325 33.7249305,256.011439 34.2531098,255.575206 C34.4753929,255.391618 34.7546845,255.291194 35.04298,255.291194 L284.95702,255.291194 Z M289.026795,249.707653 C289.744803,249.707653 290.326863,250.289714 290.326863,251.007721 C290.326863,251.268326 290.248543,251.522915 290.102064,251.738457 C289.238767,253.008787 287.802497,253.769262 286.266587,253.769262 L33.7334132,253.769262 C32.1975034,253.769262 30.7612339,253.008787 29.8979369,251.738457 C29.4943624,251.144603 29.6486147,250.336028 30.2424689,249.932453 C30.4580111,249.785974 30.7126007,249.707653 30.973205,249.707653 L289.026795,249.707653 Z" id="Combined-Shape" fill="#5B5958"></path>
            <path d="M152.987153,276.192863 C153.58452,276.192863 153.841332,276.103537 154.036733,275.829977 C154.165139,275.645742 154.181888,275.534084 154.18747,274.98138 L154.18747,272.441174 L153.327708,272.441174 L153.327708,274.886471 C153.322125,275.221444 153.316543,275.243775 153.266297,275.333101 C153.210468,275.422427 153.115559,275.455924 152.908993,275.455924 C152.691261,275.455924 152.596352,275.42801 152.551689,275.361015 C152.495861,275.27981 152.486171,275.235516 152.484871,274.850629 L152.484695,274.651991 L151.680761,274.651991 C151.675179,274.808311 151.675179,274.836226 151.675179,274.908803 C151.675179,275.668073 151.758922,275.902554 152.088311,276.07004 C152.266963,276.164949 152.490278,276.192863 152.987153,276.192863 Z M155.175639,276.164949 L155.382205,275.489421 L156.8505,275.489421 L157.062649,276.164949 L157.944742,276.164949 L156.750008,272.441174 L155.460365,272.441174 L154.282379,276.164949 L155.175639,276.164949 Z M156.671848,274.858557 L155.572022,274.858557 L156.119144,273.088787 L156.671848,274.858557 Z M158.960825,276.164949 L158.960825,275.087455 L159.66985,275.087455 C160.110896,275.076289 160.228137,275.076289 160.261634,275.070706 C160.484949,275.065123 160.691515,274.986963 160.853418,274.852974 C161.07115,274.674322 161.166059,274.356099 161.166059,273.792229 C161.166059,273.317685 161.121396,273.077621 160.987407,272.859889 C160.831087,272.614243 160.540777,272.463505 160.183474,272.446757 L160.149708,272.445244 L160.149708,272.445244 L160.089815,272.443089 C160.069136,272.442542 160.046135,272.442151 160.015987,272.441872 L158.101063,272.441174 L158.101063,276.164949 L158.960825,276.164949 Z M159.675432,274.344933 L158.960825,274.344933 L158.960825,273.150199 L159.714512,273.150199 C159.954576,273.150199 159.993656,273.155781 160.082982,273.189279 C160.244885,273.256273 160.289548,273.384679 160.289548,273.764314 C160.289548,274.272356 160.211388,274.344933 159.675432,274.344933 Z M161.863918,276.164949 L162.070484,275.489421 L163.538779,275.489421 L163.750928,276.164949 L164.633022,276.164949 L163.438287,272.441174 L162.148644,272.441174 L160.970658,276.164949 L161.863918,276.164949 Z M163.360127,274.858557 L162.260302,274.858557 L162.807423,273.088787 L163.360127,274.858557 Z M165.632355,276.164949 L165.632355,274.361682 C165.632355,274.082538 165.62119,273.691737 165.598858,273.178113 L165.632355,273.178113 L165.749596,273.474005 C165.956162,274.015544 166.006408,274.138367 166.106899,274.361682 L166.927581,276.164949 L168.379128,276.164949 L168.379128,272.441174 L167.524949,272.441174 L167.524949,274.250024 C167.524949,274.646408 167.524949,274.696654 167.54728,275.115369 L167.558446,275.405678 L167.524949,275.405678 L167.396543,275.09862 C167.189976,274.579413 167.178811,274.551499 167.005742,274.166281 L166.229723,272.441174 L164.789342,272.441174 L164.789342,276.164949 L165.632355,276.164949 Z" id="JAPAN" fill="#BA9D5A" fill-rule="nonzero"></path>
            <path d="M57.1324346,244.607455 L57.1324346,239.296114 C57.1324346,238.697859 57.117843,238.391436 57.0594767,237.165742 L57.0157019,236.465345 L57.0740683,236.465345 L57.2929422,237.136559 C57.7015068,238.391436 57.803648,238.697859 57.9933387,239.16479 L60.1528946,244.607455 L61.8309279,244.607455 L63.9758922,239.121015 C64.1363998,238.697859 64.2385409,238.362252 64.6471055,237.092784 L64.8659795,236.42157 L64.9243458,236.42157 L64.8951626,237.136559 C64.8601428,237.89824 64.8408819,238.271201 64.8310764,238.598986 L64.8258709,238.814588 C64.8238995,238.922812 64.8228229,239.034499 64.8224079,239.162373 L64.8222047,244.607455 L66.6607455,244.607455 L66.6607455,234.874861 L63.5965108,234.874861 L61.8747027,239.398256 C61.7141952,239.850595 61.5974624,240.186202 61.218081,241.411896 L60.999207,242.083109 L60.9408407,242.083109 L60.7219668,241.397304 C60.3134021,240.157019 60.211261,239.836003 60.0361618,239.383664 L58.2997622,234.874861 L55.2938938,234.874861 L55.2938938,244.607455 L57.1324346,244.607455 Z M73.3957178,244.695004 C74.5192705,244.695004 75.2780334,244.636638 75.6574148,244.519905 C76.2118954,244.359398 76.6350516,244.067566 76.9268835,243.688184 C77.2916734,243.206662 77.4375893,242.55004 77.4375893,241.353529 L77.4375893,234.874861 L75.5698653,234.874861 L75.5698653,241.382712 C75.5698653,242.885647 75.3072166,243.089929 73.4103094,243.089929 C71.5134021,243.089929 71.2215703,242.871055 71.2215703,241.45567 L71.2215703,234.874861 L69.3538462,234.874861 L69.3538462,241.45567 C69.3538462,243.221253 69.6894529,243.92165 70.7400477,244.373989 C71.3091198,244.622046 71.9657416,244.695004 73.3957178,244.695004 Z M86.565583,244.607455 L86.565583,242.973196 L82.0275972,242.973196 L82.0275972,234.874861 L80.1598732,234.874861 L80.1598732,244.607455 L86.565583,244.607455 Z M91.4620144,244.607455 L91.4620144,236.50912 L94.3365584,236.50912 L94.3365584,234.874861 L86.7781127,234.874861 L86.7781127,236.50912 L89.5942903,236.50912 L89.5942903,244.607455 L91.4620144,244.607455 Z M98.2115782,244.607455 L98.2115782,234.874861 L96.3438542,234.874861 L96.3438542,244.607455 L98.2115782,244.607455 Z M106.676606,244.607455 L107.274861,242.739731 L111.47724,242.739731 L112.104679,244.607455 L114.016178,244.607455 L110.718478,234.874861 L107.960666,234.874861 L104.721332,244.607455 L106.676606,244.607455 Z M111.054084,241.353529 L107.712609,241.353529 L109.376051,236.304838 L111.054084,241.353529 Z M122.283267,244.607455 L122.283267,242.973196 L117.745282,242.973196 L117.745282,234.874861 L115.877558,234.874861 L115.877558,244.607455 L122.283267,244.607455 Z M125.793497,244.607455 L126.391753,242.739731 L130.594132,242.739731 L131.22157,244.607455 L133.133069,244.607455 L129.835369,234.874861 L127.077558,234.874861 L123.838224,244.607455 L125.793497,244.607455 Z M130.170976,241.353529 L126.829501,241.353529 L128.492942,236.304838 L130.170976,241.353529 Z M136.862173,244.607455 L136.862173,241.368121 L139.48866,241.368121 C140.524663,241.338938 140.977003,241.791277 140.947819,242.856463 L140.947819,244.607455 L142.830135,244.607455 L142.830135,242.491674 C142.844727,241.309754 142.290246,240.653133 141.181285,240.594766 L141.181285,240.521808 C142.596669,240.244568 142.932276,239.719271 142.932276,237.778589 C142.932276,235.604441 142.129738,234.874861 139.780492,234.874861 L134.994449,234.874861 L134.994449,244.607455 L136.862173,244.607455 Z M139.474068,239.777637 L136.862173,239.777637 L136.862173,236.479937 L139.605393,236.479937 C140.801903,236.479937 141.035369,236.742586 141.035369,238.114195 C141.035369,238.945916 140.962411,239.237748 140.655987,239.485805 C140.437114,239.690087 140.057732,239.777637 139.474068,239.777637 Z M147.142903,244.607455 L147.142055,239.069506 C147.138233,238.599804 147.120529,238.22801 147.069945,237.165742 L147.02617,236.465345 L147.084536,236.465345 L147.30341,237.136559 C147.711975,238.391436 147.814116,238.697859 148.003807,239.16479 L150.163363,244.607455 L151.841396,244.607455 L153.98636,239.121015 C154.146868,238.697859 154.249009,238.362252 154.657574,237.092784 L154.876447,236.42157 L154.934814,236.42157 L154.905631,237.136559 C154.851155,238.321396 154.834813,238.565627 154.832876,239.162373 L154.832673,244.607455 L156.671214,244.607455 L156.671214,234.874861 L153.606979,234.874861 L151.885171,239.398256 C151.724663,239.850595 151.60793,240.186202 151.228549,241.411896 L151.009675,242.083109 L150.951309,242.083109 L150.732435,241.397304 C150.32387,240.157019 150.221729,239.836003 150.04663,239.383664 L148.31023,234.874861 L145.304362,234.874861 L145.304362,244.607455 L147.142903,244.607455 Z" id="MULTIALARM" fill="#BA9D5A" fill-rule="nonzero"></path>
            <g id="Group-2" transform="translate(163.806503, 234.861222)" fill="#BA9D5A">
                <rect id="Rectangle" x="1.01506741" y="0.888183982" width="2.15701824" height="7.73988899"></rect>
                <rect id="Rectangle-Copy-3" x="3.80650278" y="0.888183982" width="2.15701824" height="7.73988899"></rect>
                <rect id="Rectangle-Copy-6" x="6.59793815" y="0.888183982" width="2.15701824" height="7.73988899"></rect>
                <rect id="Rectangle" x="0" y="0" width="9.7700238" height="1.14195083"></rect>
                <rect id="Rectangle-Copy-7" x="0" y="8.37430612" width="9.7700238" height="1.14195083"></rect>
            </g>
            <path d="M30.7443617,68.7922285 L30.7443617,65.6658208 C30.7443617,65.6002221 30.7441872,65.5375893 30.7437292,65.4757197 L30.7413958,65.2901983 C30.7345916,64.9149247 30.7136559,64.4878351 30.6550357,63.5331642 L30.6215385,62.8297225 L30.6773672,62.8297225 L30.8895163,63.5108327 C31.1658684,64.3629184 31.2944489,64.750579 31.413134,65.0910714 L31.4777186,65.2746246 C31.510349,65.3665703 31.5441079,65.4606503 31.5817923,65.5653292 L32.7876923,68.7922285 L34.2950674,68.7922285 L35.4898018,65.5541634 C35.6684536,65.0517051 35.7801111,64.7167328 36.1597463,63.499667 L36.3718954,62.807391 L36.4277241,62.807391 L36.3942268,63.5219985 C36.3356067,64.6455512 36.3197304,64.982617 36.3166773,65.4532574 L36.3160667,68.7922285 L38.0132594,68.7922285 L38.0132594,61.3446789 L35.2329897,61.3446789 L34.2504045,64.1361143 C34.0940841,64.5715782 34.0159239,64.839556 33.7256146,65.8556385 L33.5581285,66.436257 L33.4911341,66.436257 C33.1524399,65.2899075 33.0096287,64.8257711 32.8840792,64.4449412 L32.8308083,64.2850827 C32.8130565,64.2323326 32.7951362,64.1795366 32.7765266,64.1249485 L31.7716099,61.3446789 L29.0471689,61.3446789 L29.0471689,68.7922285 L30.7443617,68.7922285 Z M42.6939558,68.8480572 C43.3750661,68.8480572 43.9780161,68.8033942 44.3018226,68.7363998 C44.9717671,68.5912451 45.4742255,68.2674386 45.7645348,67.7984775 C46.0883413,67.2513561 46.1665014,66.7488978 46.1665014,65.0628708 C46.1665014,64.0356226 46.14417,63.54433 46.0771755,63.2093577 C45.9320209,62.3719271 45.5300542,61.8471373 44.8377782,61.5456622 C44.4023143,61.3558446 43.9110217,61.2888502 42.861442,61.2888502 C42.1803317,61.2888502 41.5550502,61.3335131 41.2535752,61.4005076 C40.6506252,61.5233308 40.1258353,61.8471373 39.835526,62.2714354 C39.4670566,62.7962253 39.3777306,63.4326725 39.3777306,65.3755116 C39.3777306,66.179445 39.4000621,66.5590802 39.4558908,66.8940524 C39.5898797,67.6644886 39.8913547,68.1446155 40.483139,68.4795877 C40.9521002,68.7475655 41.521553,68.8480572 42.6939558,68.8480572 Z M42.8837734,67.3741793 C41.9235197,67.3741793 41.6108789,67.3183506 41.4210613,67.0950358 C41.1865807,66.8158922 41.130752,66.4920857 41.130752,65.2973514 C41.130752,63.5554957 41.175415,63.2875179 41.47689,63.0195401 C41.7002049,62.8185568 41.9570169,62.7627281 42.7386188,62.7627281 C43.6318781,62.7627281 43.9221874,62.8185568 44.112005,63.0418716 C44.3665839,63.3388803 44.4095441,63.5351182 44.4132037,64.8272388 L44.41348,65.0405393 C44.41348,66.179445 44.3911485,66.4474227 44.2683254,66.782395 C44.0896735,67.2513561 43.81053,67.3741793 42.8837734,67.3741793 Z M51.2938276,68.7922285 C52.7118768,68.7922285 53.4711472,68.423759 53.8842796,67.5528312 C54.1187602,67.039207 54.1745889,66.4139255 54.1745889,64.2812689 C54.1745889,62.204441 53.3371583,61.3446789 51.3273248,61.3446789 L47.5421384,61.3446789 L47.5421384,68.7922285 L51.2938276,68.7922285 Z M51.0705128,67.3183506 L49.2616626,67.3183506 L49.2616626,62.8408882 L51.1151757,62.8408882 C51.6957943,62.8408882 51.9972693,62.9525457 52.1759212,63.2316892 C52.3657388,63.5108327 52.4215675,63.9351309 52.4215675,65.0070421 C52.4215675,66.1571135 52.3657388,66.5702459 52.1647554,66.8828867 C51.9637721,67.1955274 51.6622971,67.3183506 51.0705128,67.3183506 Z M60.7869587,68.7922285 L60.7869587,67.3741793 L57.2139214,67.3741793 L57.2139214,65.6099921 L60.5301466,65.6099921 L60.5301466,64.3929263 L57.2139214,64.3929263 L57.2139214,62.7627281 L60.7422957,62.7627281 L60.7422957,61.3446789 L55.4943972,61.3446789 L55.4943972,68.7922285 L60.7869587,68.7922285 Z" id="MODE" fill="#CCCBCC" fill-rule="nonzero"></path>
            <path d="M244.940841,58.2609041 L244.940841,56.7758605 L241.646947,56.7758605 L241.646947,50.8133545 L239.927423,50.8133545 L239.927423,58.2609041 L244.940841,58.2609041 Z M247.734527,58.2609041 L247.734527,50.8133545 L246.015003,50.8133545 L246.015003,58.2609041 L247.734527,58.2609041 Z M252.448721,58.3167328 C254.201742,58.3167328 254.815858,58.1827439 255.273653,57.702617 C255.67562,57.2671531 255.798443,56.798192 255.798443,55.6481206 C255.798443,55.1233307 255.787277,54.6320381 255.776112,54.1742427 L252.448721,54.1742427 L252.448721,55.3913085 L254.067753,55.3913085 C254.078919,55.502966 254.090085,55.6146234 254.090085,55.6369549 C254.090085,56.6642031 253.810941,56.8763522 252.482218,56.8763522 C251.577793,56.8763522 251.175826,56.7423633 251.019506,56.3738938 C250.885517,56.0724188 250.885517,56.061253 250.863185,54.419889 C250.874351,53.0576686 250.885517,53.0018399 251.030672,52.7115306 C251.220489,52.3207296 251.600124,52.1979065 252.571544,52.1979065 C253.777444,52.1979065 253.967262,52.3207296 254.034256,53.0911658 L255.776112,53.0911658 C255.742615,51.9745916 255.530465,51.4163046 255.005676,51.1148296 C254.503217,50.8245203 254.067753,50.7575258 252.73903,50.7575258 C251.700616,50.7575258 251.16466,50.8021888 250.796191,50.9026805 C250.048086,51.1148296 249.534462,51.5837907 249.322313,52.2760667 C249.154827,52.7896908 249.110164,53.4038066 249.110164,55.2349882 C249.110164,56.8986836 249.478634,57.6691198 250.450053,58.0822522 C250.885517,58.2609041 251.343312,58.3167328 252.448721,58.3167328 Z M258.82661,58.2609041 L258.82661,55.2126567 L261.84136,55.2126567 L261.84136,58.2609041 L263.560884,58.2609041 L263.560884,50.8133545 L261.84136,50.8133545 L261.84136,53.7387788 L258.82661,53.7387788 L258.82661,50.8133545 L257.107086,50.8133545 L257.107086,58.2609041 L258.82661,58.2609041 Z M268.37557,58.2609041 L268.37557,52.2983981 L270.485895,52.2983981 L270.485895,50.8133545 L264.646212,50.8133545 L264.646212,52.2983981 L266.656046,52.2983981 L266.656046,58.2609041 L268.37557,58.2609041 Z" id="LIGHT" fill="#CCCBCC" fill-rule="nonzero"></path>
            <path d="M224.917621,68.8480572 C226.413831,68.8480572 227.005615,68.725234 227.474576,68.2897701 C227.83188,67.9547979 227.965869,67.4523395 227.965869,66.4920857 C227.965869,65.5095005 227.798383,65.0740365 227.318256,64.7613958 C226.93862,64.5157495 226.525488,64.4264235 225.330754,64.3594291 C224.124854,64.2812689 224.124854,64.2812689 223.968533,64.2477717 C223.633561,64.1584457 223.499572,63.9462967 223.499572,63.4885013 C223.499572,62.7738938 223.745218,62.6175734 224.906455,62.6175734 C225.956035,62.6175734 226.123521,62.7515623 226.123521,63.6001587 L227.764885,63.6001587 C227.776051,63.4773355 227.776051,63.3433466 227.776051,63.2986836 C227.776051,62.6622364 227.642062,62.2156067 227.362919,61.8806345 C226.983283,61.4340048 226.369168,61.2888502 224.850627,61.2888502 C223.466075,61.2888502 222.863125,61.4005076 222.382998,61.7354798 C221.969865,62.0369549 221.780048,62.5840762 221.780048,63.4773355 C221.780048,64.538081 222.014528,65.0852023 222.595147,65.3755116 C222.974782,65.5653292 223.32092,65.6211579 224.537986,65.6993181 C225.889041,65.788644 225.889041,65.788644 226.067693,65.9337986 C226.212847,66.0342903 226.268676,66.2352737 226.268676,66.5590802 C226.268676,66.9498811 226.190516,67.1843617 226.034195,67.3071848 C225.844378,67.4523395 225.676892,67.4858367 224.995781,67.4858367 C223.979699,67.4858367 223.823379,67.4635052 223.644727,67.3183506 C223.477241,67.1620302 223.410246,66.9387154 223.410246,66.5367487 L223.410246,66.4027598 L221.768882,66.4027598 C221.768882,67.3295163 221.847042,67.7203173 222.081523,68.077621 C222.449992,68.6694053 223.097605,68.8480572 224.917621,68.8480572 Z M232.523742,68.7922285 L232.523742,62.8297225 L234.634067,62.8297225 L234.634067,61.3446789 L228.794384,61.3446789 L228.794384,62.8297225 L230.804218,62.8297225 L230.804218,68.7922285 L232.523742,68.7922285 Z M236.233019,68.7922285 L236.646151,67.4411737 L239.582741,67.4411737 L240.00704,68.7922285 L241.771227,68.7922285 L239.381758,61.3446789 L236.802472,61.3446789 L234.4465,68.7922285 L236.233019,68.7922285 Z M239.225438,66.179445 L237.025787,66.179445 L238.120029,62.6399049 L239.225438,66.179445 Z M244.44209,68.7922285 L244.44209,66.5702459 L246.183945,66.5702459 C246.819648,66.5494032 247.134373,66.8398117 247.155355,67.4868623 L247.155365,68.7922285 L248.897221,68.7922285 L248.897221,67.3071848 C248.908386,66.391594 248.472922,65.9003014 247.590829,65.8444727 L247.590829,65.788644 C248.729734,65.5318319 248.964215,65.1521967 248.964215,63.6001587 C248.964215,62.4947503 248.707403,61.9252974 248.048624,61.6014909 C247.702486,61.4228391 247.200028,61.3446789 246.429592,61.3446789 L242.722566,61.3446789 L242.722566,68.7922285 L244.44209,68.7922285 Z M246.228608,65.1075338 L244.44209,65.1075338 L244.44209,62.8185568 L246.228608,62.8185568 C247.054873,62.8185568 247.211194,62.9972086 247.211194,63.8904679 C247.211194,64.8842189 247.032542,65.1075338 246.228608,65.1075338 Z M253.656077,68.7922285 L253.656077,62.8297225 L255.766402,62.8297225 L255.766402,61.3446789 L249.92672,61.3446789 L249.92672,62.8297225 L251.936553,62.8297225 L251.936553,68.7922285 L253.656077,68.7922285 Z" id="START" fill="#CCCBCC" fill-rule="nonzero"></path>
            <path d="M264.8859,68.8480572 C266.38211,68.8480572 266.973894,68.725234 267.442855,68.2897701 C267.800159,67.9547979 267.934148,67.4523395 267.934148,66.4920857 C267.934148,65.5095005 267.766662,65.0740365 267.286535,64.7613958 C266.9069,64.5157495 266.493767,64.4264235 265.299033,64.3594291 C264.093133,64.2812689 264.093133,64.2812689 263.936812,64.2477717 C263.60184,64.1584457 263.467851,63.9462967 263.467851,63.4885013 C263.467851,62.7738938 263.713498,62.6175734 264.874735,62.6175734 C265.924314,62.6175734 266.0918,62.7515623 266.0918,63.6001587 L267.733164,63.6001587 C267.74433,63.4773355 267.74433,63.3433466 267.74433,63.2986836 C267.74433,62.6622364 267.610341,62.2156067 267.331198,61.8806345 C266.951563,61.4340048 266.337447,61.2888502 264.818906,61.2888502 C263.434354,61.2888502 262.831404,61.4005076 262.351277,61.7354798 C261.938145,62.0369549 261.748327,62.5840762 261.748327,63.4773355 C261.748327,64.538081 261.982808,65.0852023 262.563426,65.3755116 C262.943061,65.5653292 263.289199,65.6211579 264.506265,65.6993181 C265.85732,65.788644 265.85732,65.788644 266.035972,65.9337986 C266.181126,66.0342903 266.236955,66.2352737 266.236955,66.5590802 C266.236955,66.9498811 266.158795,67.1843617 266.002475,67.3071848 C265.812657,67.4523395 265.645171,67.4858367 264.964061,67.4858367 C263.947978,67.4858367 263.791658,67.4635052 263.613006,67.3183506 C263.44552,67.1620302 263.378525,66.9387154 263.378525,66.5367487 L263.378525,66.4027598 L261.737161,66.4027598 C261.737161,67.3295163 261.815321,67.7203173 262.049802,68.077621 C262.418272,68.6694053 263.065885,68.8480572 264.8859,68.8480572 Z M272.492021,68.7922285 L272.492021,62.8297225 L274.602346,62.8297225 L274.602346,61.3446789 L268.762663,61.3446789 L268.762663,62.8297225 L270.772497,62.8297225 L270.772497,68.7922285 L272.492021,68.7922285 Z M278.79175,68.8480572 C279.47286,68.8480572 280.07581,68.8033942 280.399617,68.7363998 C281.069561,68.5912451 281.57202,68.2674386 281.862329,67.7984775 C282.186136,67.2513561 282.264296,66.7488978 282.264296,65.0628708 C282.264296,64.0356226 282.241964,63.54433 282.17497,63.2093577 C282.029815,62.3719271 281.627848,61.8471373 280.935573,61.5456622 C280.500109,61.3558446 280.008816,61.2888502 278.959236,61.2888502 C278.278126,61.2888502 277.652845,61.3335131 277.351369,61.4005076 C276.748419,61.5233308 276.22363,61.8471373 275.93332,62.2714354 C275.564851,62.7962253 275.475525,63.4326725 275.475525,65.3755116 C275.475525,66.179445 275.497856,66.5590802 275.553685,66.8940524 C275.687674,67.6644886 275.989149,68.1446155 276.580933,68.4795877 C277.049894,68.7475655 277.619347,68.8480572 278.79175,68.8480572 Z M278.981568,67.3741793 C278.021314,67.3741793 277.708673,67.3183506 277.518856,67.0950358 C277.284375,66.8158922 277.228546,66.4920857 277.228546,65.2973514 C277.228546,63.5554957 277.273209,63.2875179 277.574684,63.0195401 C277.797999,62.8185568 278.054811,62.7627281 278.836413,62.7627281 C279.729672,62.7627281 280.019982,62.8185568 280.209799,63.0418716 C280.464378,63.3388803 280.507338,63.5351182 280.510998,64.8272388 L280.511274,65.0405393 C280.511274,66.179445 280.488943,66.4474227 280.36612,66.782395 C280.187468,67.2513561 279.908324,67.3741793 278.981568,67.3741793 Z M285.314794,68.7922285 L285.314794,66.6372404 L286.732843,66.6372404 C287.614937,66.6149089 287.849417,66.6149089 287.916412,66.6037431 C288.363041,66.5925774 288.776174,66.436257 289.09998,66.1682792 C289.535444,65.8109755 289.725262,65.1745282 289.725262,64.0467883 C289.725262,63.0977003 289.635936,62.6175734 289.367958,62.1821095 C289.055317,61.6908169 288.474699,61.3893419 287.760091,61.3558446 C287.729386,61.3544489 287.702518,61.3532277 287.677133,61.3521591 L287.603073,61.3493894 C287.553525,61.3478193 287.500488,61.3467725 287.425119,61.3460746 L287.292962,61.3452677 C287.267359,61.3451696 287.239772,61.3450878 287.209906,61.3450196 L283.59527,61.3446789 L283.59527,68.7922285 L285.314794,68.7922285 Z M286.744009,65.1521967 L285.314794,65.1521967 L285.314794,62.7627281 L286.822169,62.7627281 C287.302296,62.7627281 287.380456,62.7738938 287.559108,62.8408882 C287.882915,62.9748771 287.97224,63.2316892 287.97224,63.9909596 C287.97224,65.0070421 287.81592,65.1521967 286.744009,65.1521967 Z" id="STOP" fill="#CCCBCC" fill-rule="nonzero"></path>
            <polygon id="/" fill="#CCCBCC" fill-rule="nonzero" points="256.798224 69.4924664 260.538747 62.121935 259.578113 62.121935 255.846091 69.4924664"></polygon>
            <path d="M223.909474,236.532118 L223.909474,234.310135 L225.65133,234.310135 C226.287033,234.289292 226.601758,234.579701 226.62274,235.226751 L226.62275,236.532118 L228.364605,236.532118 L228.364605,235.047074 C228.375771,234.131483 227.940307,233.640191 227.058214,233.584362 L227.058214,233.528533 C228.197119,233.271721 228.4316,232.892086 228.4316,231.340048 C228.4316,230.234639 228.174788,229.665187 227.516009,229.34138 C227.169871,229.162728 226.667413,229.084568 225.896976,229.084568 L222.18995,229.084568 L222.18995,236.532118 L223.909474,236.532118 Z M225.695993,232.847423 L223.909474,232.847423 L223.909474,230.558446 L225.695993,230.558446 C226.522258,230.558446 226.678578,230.737098 226.678578,231.630357 C226.678578,232.624108 226.499926,232.847423 225.695993,232.847423 Z M235.088632,236.532118 L235.088632,235.114068 L231.515595,235.114068 L231.515595,233.349881 L234.83182,233.349881 L234.83182,232.132815 L231.515595,232.132815 L231.515595,230.502617 L235.043969,230.502617 L235.043969,229.084568 L229.796071,229.084568 L229.796071,236.532118 L235.088632,236.532118 Z M237.792993,236.532118 L238.206125,235.181063 L241.142715,235.181063 L241.567013,236.532118 L243.3312,236.532118 L240.941732,229.084568 L238.362446,229.084568 L236.006474,236.532118 L237.792993,236.532118 Z M240.785411,233.919334 L238.58576,233.919334 L239.680003,230.379794 L240.785411,233.919334 Z M248.034228,236.532118 C249.452278,236.532118 250.211548,236.163648 250.62468,235.29272 C250.859161,234.779096 250.91499,234.153815 250.91499,232.021158 C250.91499,229.94433 250.077559,229.084568 248.067726,229.084568 L244.282539,229.084568 L244.282539,236.532118 L248.034228,236.532118 Z M247.810914,235.05824 L246.002063,235.05824 L246.002063,230.580777 L247.855577,230.580777 C248.436195,230.580777 248.73767,230.692435 248.916322,230.971578 C249.10614,231.250722 249.161968,231.67502 249.161968,232.746931 C249.161968,233.897003 249.10614,234.310135 248.905156,234.622776 C248.704173,234.935417 248.402698,235.05824 247.810914,235.05824 Z" id="READ" fill="#CCCBCC" fill-rule="nonzero"></path>
            <path d="M259.571864,236.587946 C261.068073,236.587946 261.659858,236.465123 262.128819,236.029659 C262.486122,235.694687 262.620111,235.192229 262.620111,234.231975 C262.620111,233.24939 262.452625,232.813926 261.972498,232.501285 C261.592863,232.255639 261.179731,232.166313 259.984996,232.099318 C258.779096,232.021158 258.779096,232.021158 258.622776,231.987661 C258.287804,231.898335 258.153815,231.686186 258.153815,231.22839 C258.153815,230.513783 258.399461,230.357463 259.560698,230.357463 C260.610278,230.357463 260.777764,230.491451 260.777764,231.340048 L262.419128,231.340048 C262.430294,231.217225 262.430294,231.083236 262.430294,231.038573 C262.430294,230.402126 262.296305,229.955496 262.017161,229.620524 C261.637526,229.173894 261.02341,229.028739 259.504869,229.028739 C258.120318,229.028739 257.517367,229.140397 257.037241,229.475369 C256.624108,229.776844 256.434291,230.323965 256.434291,231.217225 C256.434291,232.27797 256.668771,232.825091 257.24939,233.115401 C257.629025,233.305218 257.975163,233.361047 259.192229,233.439207 C260.543283,233.528533 260.543283,233.528533 260.721935,233.673688 C260.86709,233.774179 260.922919,233.975163 260.922919,234.298969 C260.922919,234.68977 260.844758,234.924251 260.688438,235.047074 C260.49862,235.192229 260.331134,235.225726 259.650024,235.225726 C258.633942,235.225726 258.477621,235.203394 258.298969,235.05824 C258.131483,234.901919 258.064489,234.678605 258.064489,234.276638 L258.064489,234.142649 L256.423125,234.142649 C256.423125,235.069405 256.501285,235.460206 256.735766,235.81751 C257.104235,236.409294 257.751848,236.587946 259.571864,236.587946 Z M269.254813,236.532118 L269.254813,235.114068 L265.681775,235.114068 L265.681775,233.349881 L268.998001,233.349881 L268.998001,232.132815 L265.681775,232.132815 L265.681775,230.502617 L269.21015,230.502617 L269.21015,229.084568 L263.962251,229.084568 L263.962251,236.532118 L269.254813,236.532118 Z M273.935509,236.532118 L273.935509,230.569612 L276.045834,230.569612 L276.045834,229.084568 L270.206151,229.084568 L270.206151,230.569612 L272.215985,230.569612 L272.215985,236.532118 L273.935509,236.532118 Z" id="SET" fill="#CCCBCC" fill-rule="nonzero"></path>
            <polygon id="/" fill="#CCCBCC" fill-rule="nonzero" points="251.484187 237.232356 255.224711 229.861824 254.264076 229.861824 250.532054 237.232356"></polygon>
            <path d="M224.250345,246.809675 L224.250345,245.324632 L220.956452,245.324632 L220.956452,239.362126 L219.236927,239.362126 L219.236927,246.809675 L224.250345,246.809675 Z M226.787219,246.809675 L227.200352,245.45862 L230.136942,245.45862 L230.56124,246.809675 L232.325427,246.809675 L229.935959,239.362126 L227.356672,239.362126 L225.000701,246.809675 L226.787219,246.809675 Z M229.779638,244.196892 L227.579987,244.196892 L228.67423,240.657352 L229.779638,244.196892 Z M234.99629,246.809675 L234.99629,244.654687 L236.414339,244.654687 C237.296433,244.632356 237.530914,244.632356 237.597908,244.62119 C238.044538,244.610024 238.45767,244.453704 238.781477,244.185726 C239.216941,243.828422 239.406758,243.191975 239.406758,242.064235 C239.406758,241.115147 239.317432,240.63502 239.049454,240.199556 C238.736814,239.708264 238.156195,239.406789 237.441588,239.373291 C237.410882,239.371896 237.384014,239.370674 237.35863,239.369606 L237.284569,239.366836 C237.235021,239.365266 237.181984,239.364219 237.106615,239.363521 L236.974458,239.362714 C236.948856,239.362616 236.921268,239.362534 236.891402,239.362466 L233.276766,239.362126 L233.276766,246.809675 L234.99629,246.809675 Z M236.425505,243.169643 L234.99629,243.169643 L234.99629,240.780175 L236.503665,240.780175 C236.983792,240.780175 237.061952,240.79134 237.240604,240.858335 C237.564411,240.992324 237.653737,241.249136 237.653737,242.008406 C237.653737,243.024489 237.497416,243.169643 236.425505,243.169643 Z" id="LAP" fill="#CCCBCC" fill-rule="nonzero"></path>
            <path d="M246.991118,246.809675 L246.991118,244.587693 L248.732974,244.587693 C249.368677,244.56685 249.683402,244.857258 249.704384,245.504309 L249.704394,246.809675 L251.446249,246.809675 L251.446249,245.324632 C251.457415,244.409041 251.021951,243.917748 250.139858,243.861919 L250.139858,243.806091 C251.278763,243.549279 251.513244,243.169643 251.513244,241.617605 C251.513244,240.512197 251.256432,239.942744 250.597653,239.618938 C250.251515,239.440286 249.749057,239.362126 248.97862,239.362126 L245.271594,239.362126 L245.271594,246.809675 L246.991118,246.809675 Z M248.777637,243.12498 L246.991118,243.12498 L246.991118,240.836003 L248.777637,240.836003 C249.603902,240.836003 249.760222,241.014655 249.760222,241.907915 C249.760222,242.901666 249.58157,243.12498 248.777637,243.12498 Z M258.170276,246.809675 L258.170276,245.391626 L254.597239,245.391626 L254.597239,243.627439 L257.913464,243.627439 L257.913464,242.410373 L254.597239,242.410373 L254.597239,240.780175 L258.125614,240.780175 L258.125614,239.362126 L252.877715,239.362126 L252.877715,246.809675 L258.170276,246.809675 Z M262.415509,246.865504 C263.911718,246.865504 264.503503,246.742681 264.972464,246.307217 C265.329768,245.972245 265.463756,245.469786 265.463756,244.509532 C265.463756,243.526947 265.29627,243.091483 264.816143,242.778842 C264.436508,242.533196 264.023376,242.44387 262.828641,242.376876 C261.75673,242.3074 261.637629,242.299681 261.514607,242.275297 L261.466421,242.265218 L261.466421,242.265218 C261.131449,242.175892 260.99746,241.963743 260.99746,241.505948 C260.99746,240.79134 261.243106,240.63502 262.404343,240.63502 C263.453923,240.63502 263.621409,240.769009 263.621409,241.617605 L265.262773,241.617605 C265.273939,241.494782 265.273939,241.360793 265.273939,241.31613 C265.273939,240.679683 265.13995,240.233053 264.860806,239.898081 C264.481171,239.451451 263.867055,239.306297 262.348515,239.306297 C260.963963,239.306297 260.361013,239.417954 259.880886,239.752927 C259.467753,240.054402 259.277936,240.601523 259.277936,241.494782 C259.277936,242.555528 259.512416,243.102649 260.093035,243.392958 C260.47267,243.582776 260.818808,243.638605 262.035874,243.716765 C263.386929,243.806091 263.386929,243.806091 263.56558,243.951245 C263.710735,244.051737 263.766564,244.25272 263.766564,244.576527 C263.766564,244.967328 263.688404,245.201808 263.532083,245.324632 C263.342266,245.469786 263.174779,245.503283 262.493669,245.503283 C261.477587,245.503283 261.321266,245.480952 261.142615,245.335797 C260.975128,245.179477 260.908134,244.956162 260.908134,244.554195 L260.908134,244.420206 L259.26677,244.420206 C259.26677,245.346963 259.34493,245.737764 259.579411,246.095068 C259.94788,246.686852 260.595493,246.865504 262.415509,246.865504 Z M272.098458,246.809675 L272.098458,245.391626 L268.52542,245.391626 L268.52542,243.627439 L271.841646,243.627439 L271.841646,242.410373 L268.52542,242.410373 L268.52542,240.780175 L272.053795,240.780175 L272.053795,239.362126 L266.805896,239.362126 L266.805896,246.809675 L272.098458,246.809675 Z M276.779154,246.809675 L276.779154,240.847169 L278.889479,240.847169 L278.889479,239.362126 L273.049797,239.362126 L273.049797,240.847169 L275.05963,240.847169 L275.05963,246.809675 L276.779154,246.809675 Z" id="RESET" fill="#CCCBCC" fill-rule="nonzero"></path>
            <polygon id="/" fill="#CCCBCC" fill-rule="nonzero" points="240.064679 247.509913 243.805203 240.139382 242.844568 240.139382 239.112546 247.509913"></polygon>
            <path d="M130.399839,56.2093577 C132.232163,56.2093577 132.947332,56.4240104 133.760917,57.232732 C134.094758,57.63889 134.451983,57.1627147 134.458152,56.7394478 L134.458152,56.3955434 L135.361546,56.3955434 L135.361546,61.0507606 L134.46346,61.0507606 C134.46346,59.4637972 133.039292,57.2696816 131.191761,57.2696816 C128.446719,57.2696816 127.655658,59.8151777 127.655658,62.9553179 C127.655658,66.0950267 128.288191,68.6409542 131.191761,68.6409542 C133.28232,68.6409542 134.30608,67.1605264 134.497892,65.0722275 L135.595249,65.0661891 C135.229846,68.8799044 133.068559,69.9127677 130.399839,69.9127677 C127.26644,69.9127677 124.726408,67.980606 124.726408,62.9553179 C124.726408,58.670603 127.26644,56.2093577 130.399839,56.2093577 Z M142.065624,56.3955434 L142.065624,57.2685314 C141.564073,57.2685314 140.798549,57.5330732 140.798549,58.3793195 L140.798549,58.3793195 L140.798549,67.5574829 C140.798549,68.1657853 141.141715,68.6684148 142.065624,68.6684148 L142.065624,68.6684148 L142.065624,69.5677132 L136.681272,69.5677132 L136.681272,68.6684148 C137.605181,68.6684148 137.94806,68.1657853 137.94806,67.5574829 L137.94806,67.5574829 L137.94806,58.3793195 C137.94806,57.5330732 137.182679,57.2685314 136.681272,57.2685314 L136.681272,57.2685314 L136.681272,56.3955434 L142.065624,56.3955434 Z M160.487706,56.3955434 L160.487706,57.2685314 C159.986156,57.2685314 159.220918,57.5330732 159.220918,58.3793195 L159.220918,58.3793195 L159.220918,67.5574829 C159.220918,68.1657853 159.563941,68.6684148 160.487706,68.6684148 L160.487706,68.6684148 L160.487706,69.5677132 L155.103355,69.5677132 L155.103355,68.6684148 C156.027407,68.6684148 156.37043,68.1657853 156.37043,67.5574829 L156.37043,67.5574829 L156.37043,58.3793195 C156.37043,57.5330732 155.604905,57.2685314 155.103355,57.2685314 L155.103355,57.2685314 L155.103355,56.3955434 L160.487706,56.3955434 Z M187.989059,56.3955434 L192.951196,64.3835562 L192.951196,58.3793195 C192.951196,57.5330732 192.185671,57.2685314 191.684121,57.2685314 L191.684121,57.2685314 L191.684121,56.3955434 L195.273593,56.3955434 L195.273593,57.2685314 C194.772329,57.2685314 194.006805,57.5330732 194.006805,58.3793195 L194.006805,58.3793195 L194.006805,69.5677132 L192.845606,69.5677132 L186.141815,58.7498218 L186.141815,67.5574829 C186.141815,68.1657853 186.484981,68.6684148 187.408603,68.6684148 L187.408603,68.6684148 L187.408603,69.5677132 L183.819131,69.5677132 L183.819131,68.6684148 C184.743183,68.6684148 185.085919,68.1657853 185.085919,67.5574829 L185.085919,67.5574829 L185.085919,58.3793195 C185.085919,57.5330732 184.320682,57.2685314 183.819131,57.2685314 L183.819131,57.2685314 L183.819131,56.3955434 L187.989059,56.3955434 Z M153.889505,56.3955434 L153.889505,60.4690561 L152.991994,60.4690561 L152.991994,59.5433035 C152.991994,57.2685314 150.748358,57.2951294 150.036203,57.2951294 L150.036203,67.5574829 C150.036203,68.1657853 150.379225,68.6684148 151.302991,68.6684148 L151.302991,69.5677132 L145.91907,69.5677132 L145.91907,68.6684148 C146.842548,68.6684148 147.185714,68.1657853 147.185714,67.5574829 L147.185714,57.2951294 C146.473128,57.2951294 144.22978,57.2685314 144.22978,59.5433035 L144.22978,60.4690561 L143.332412,60.4690561 L143.332412,56.3955434 L153.889505,56.3955434 Z M171.203041,56.3955434 L165.291315,68.6155064 L167.262803,68.6155125 C168.04212,68.6149037 170.147719,68.5707302 170.147719,66.3670447 L170.147719,66.3670447 L170.147719,65.4412921 L171.044943,65.4412921 L171.044943,69.5677132 L161.701556,69.5677132 L167.666507,57.2951294 L165.906304,57.2951225 C165.126612,57.2957144 163.021283,57.339618 163.021283,59.5433035 L163.021283,59.5433035 L163.021283,60.4690561 L162.124058,60.4690561 L162.124058,56.3955434 L171.203041,56.3955434 Z M182.393959,56.3955434 L182.393959,60.4690561 L181.496878,60.4690561 L181.496878,59.5433035 C181.496878,57.339618 179.391279,57.2957144 178.611831,57.2951225 L176.74592,57.2951294 L176.74592,62.1089278 L178.276682,62.1089278 C178.883679,62.1089278 179.385229,61.7650235 179.385229,60.8394146 L180.282454,60.8394146 L180.282454,64.4363208 L179.385229,64.4363208 C179.385229,63.5107119 178.883679,63.1666638 178.276682,63.1666638 L176.74592,63.1666638 L176.74592,68.6684148 L178.540656,68.6684148 C179.253242,68.6684148 181.496878,68.6947252 181.496878,66.4200968 L181.496878,65.494488 L182.393959,65.494488 L182.393959,69.5677132 L172.628644,69.5677132 L172.628644,68.6684148 C173.552266,68.6684148 173.895432,68.1657853 173.895432,67.5574829 L173.895432,58.3793195 C173.895432,57.5330732 173.130194,57.2685314 172.628644,57.2685314 L172.628644,56.3955434 L182.393959,56.3955434 Z" id="Citizen-wordmark" fill="#BA9D5A"></path>
            <g id="Group-5" transform="translate(153.528945, 24.996035)" fill="#BA9D5A" fill-rule="nonzero">
                <path d="M12.9421095,6.5218081 L8.37430612,3.93338621 L3.80650278,6.5218081 L3.80650278,16.2909122 L8.37430612,18.8793341 L12.9421095,16.2909122 L12.9421095,6.5218081 Z M8.37430612,5.68341011 L11.4195083,7.40915158 L11.4195083,15.4034418 L8.37430612,17.1291833 L5.32910389,15.4035687 L5.32910389,7.4090247 L8.37430612,5.68341011 Z" id="Rectangle-Copy-2"></path>
                <polygon id="Path" points="3.06530729e-14 2.58842189 4.56780334 1.56871608e-13 8.74963686 2.36970566 7.99897537 3.69440241 4.56780334 1.7500239 1.52260111 3.4756385 1.52260111 11.4701825 4.56780334 13.1957971 7.65634059 11.4457052 14.5904804 15.3735526 13.8400356 16.6983721 7.65652658 13.1956702 4.56780334 14.9459479 3.06530729e-14 12.357526"></polygon>
            </g>
            <path d="M147.565366,45.1686669 C147.565366,46.2899155 146.656414,47.1988671 145.535166,47.1988671 L24.6231888,47.1988671 L24.6231888,47.1988671 C23.8498347,47.1988671 23.2229073,46.5719397 23.2229073,45.7985856 C23.2229073,45.5798218 23.2741636,45.364101 23.3725669,45.1687183 C23.9995086,43.9239053 25.2743532,43.1385695 26.6681306,43.1385695 L145.535166,43.1384685 C146.656413,43.1384675 147.565365,44.0474175 147.565366,45.1686652 C147.565366,45.1686657 147.565366,45.1686663 147.565366,45.1686669 Z M147.565366,39.585477 C147.565366,40.7067599 146.656387,41.6157396 145.535104,41.6157406 L27.561618,41.6158457 L27.561618,41.6158457 C26.8146841,41.6158457 26.2091745,41.0103362 26.2091745,40.2634022 C26.2091745,40.0253617 26.2720016,39.7915377 26.3913081,39.5855541 C27.1191465,38.3289355 28.4613396,37.5552625 29.9135239,37.5552625 L145.535104,37.5552162 C146.656386,37.5552157 147.565365,38.4641941 147.565366,39.5854762 C147.565366,39.5854765 147.565366,39.5854768 147.565366,39.585477 Z M147.565366,34.0029235 C147.565366,35.1245217 146.656131,36.0337568 145.534533,36.0337576 L30.9732042,36.0338399 L30.9732042,36.0338399 C30.2551933,36.0338399 29.6731304,35.4517771 29.6731304,34.7337661 C29.6731304,34.4731607 29.7514514,34.21857 29.8979312,34.0030269 C30.7612317,32.7326918 32.1975073,31.9722139 33.7334237,31.9722139 L145.534533,31.972093 C146.65613,31.9720918 147.565365,32.8813246 147.565366,34.0029213 C147.565366,34.002922 147.565366,34.0029228 147.565366,34.0029235 Z M147.565366,28.4200047 C147.565366,29.5412958 146.65638,30.4502819 145.535089,30.4502819 L35.0429576,30.4502819 L35.0429576,30.4502819 C34.3579282,30.4502819 33.8026021,29.8949558 33.8026021,29.2099264 C33.8026021,28.9216334 33.9030256,28.6423442 34.0866118,28.4200629 C35.1485165,27.1343368 36.7289944,26.389844 38.3965475,26.389844 L145.535089,26.3897298 C146.656379,26.3897286 147.565365,27.2987127 147.565366,28.4200026 C147.565366,28.4200033 147.565366,28.420004 147.565366,28.4200047 Z M147.565366,22.8365476 C147.565366,23.9578654 146.656359,24.8668732 145.535041,24.8668738 L40.1642135,24.8669308 L40.1642135,24.8669308 C39.5173108,24.8669308 38.9928924,24.3425125 38.9928924,23.6956097 C38.9928924,23.3695454 39.1288062,23.0582379 39.3679381,22.8365762 C40.7759817,21.5313994 42.6250502,20.8062225 44.5449651,20.8062225 L145.535041,20.8062225 C146.656358,20.8062225 147.565366,21.71523 147.565366,22.8365476 Z" id="Shape" fill="#5B5958"></path>
            <path d="M293.33187,43.1385695 C294.725647,43.1385695 296.000492,43.9239053 296.627434,45.1687183 C296.9753,45.8594177 296.697378,46.7013414 296.006679,47.0492075 C295.811296,47.1476108 295.595575,47.1988671 295.376812,47.1988671 L174.464779,47.1988671 C173.343529,47.1988671 172.434576,46.2899143 172.434576,45.1686643 C172.434576,44.0474153 173.343528,43.1384634 174.464777,43.1384634 C174.464777,43.1384634 174.464778,43.1384634 174.464779,43.1384634 L293.33187,43.1385695 L293.33187,43.1385695 Z M290.086476,37.5552625 C291.538661,37.5552625 292.880854,38.3289355 293.608692,39.5855541 C293.983057,40.2318984 293.762575,41.059347 293.11623,41.4337122 C292.910247,41.5530187 292.676423,41.6158457 292.438382,41.6158457 L174.464838,41.6157355 C173.343555,41.6157344 172.434576,40.7067548 172.434576,39.5854719 C172.434576,38.4641898 173.343555,37.5552111 174.464837,37.5552111 C174.464837,37.5552111 174.464837,37.5552111 174.464838,37.5552111 L290.086476,37.5552625 L290.086476,37.5552625 Z M286.266577,31.9722126 C287.802493,31.9722126 289.238769,32.7326918 290.102069,34.0030269 C290.505645,34.5968838 290.351392,35.405463 289.757535,35.8090391 C289.541992,35.955519 289.287402,36.0338399 289.026796,36.0338399 L174.465345,36.0337526 C173.343782,36.0337517 172.434576,35.1245449 172.434576,34.0029818 C172.434576,32.8814189 173.343782,31.9722126 174.465345,31.9722126 L286.266577,31.9722126 L286.266577,31.9722126 Z M281.603453,26.389844 C283.271006,26.389844 284.851484,27.1343368 285.913389,28.4200629 C286.349618,28.9482381 286.275081,29.7300427 285.746906,30.1662722 C285.524625,30.3498584 285.245336,30.4502819 284.957043,30.4502819 L174.464856,30.4502819 C173.343563,30.4502819 172.434576,29.5412947 172.434576,28.4200022 C172.434576,27.2987109 173.343562,26.3897247 174.464853,26.3897247 C174.464854,26.3897247 174.464855,26.3897247 174.464856,26.3897247 L281.603453,26.389844 L281.603453,26.389844 Z M275.455155,20.8062805 C277.37504,20.806281 279.224079,21.5314484 280.632099,22.836606 C281.106523,23.276371 281.134619,24.0174675 280.694854,24.4918913 C280.473196,24.7310192 280.161893,24.8669308 279.835834,24.8669308 L174.464901,24.8668688 C173.343583,24.8668681 172.434576,23.9578603 172.434576,22.8365425 C172.434576,21.7152255 173.343583,20.8062186 174.4649,20.8062186 C174.4649,20.8062186 174.464901,20.8062186 174.464901,20.8062186 L275.455155,20.8062805 L275.455155,20.8062805 Z" id="Shape" fill="#5B5958"></path>
            <path d="M272.359289,19.2839703 L47.6406887,19.2839703 C47.0413123,19.2839703 46.5554217,18.7980797 46.5554217,18.1987033 C46.5554217,17.8081537 46.7652674,17.4477233 47.1049043,17.2549133 L47.7654465,16.8799271 C49.6751611,15.7957927 51.8335549,15.2258563 54.0295414,15.2258563 L265.970443,15.2258563 C268.16644,15.2258563 270.324843,15.7957981 272.234564,16.8799421 L272.895076,17.2549133 C273.416317,17.5508202 273.598985,18.2132491 273.303078,18.7344895 C273.110268,19.0741254 272.749838,19.2839703 272.359289,19.2839703 Z" id="Path" fill="#5B5958"></path>
            <path d="M257.137629,13.7026033 L62.8623619,13.7026033 C62.2930493,13.7026033 61.8315303,13.2410842 61.8315303,12.6717716 C61.8315303,12.2002781 62.1514297,11.7888812 62.608389,11.6727162 L69.0547868,10.0339581 C70.0765286,9.77421808 71.1266587,9.64282922 72.1808983,9.64282922 L247.819084,9.64282922 C248.873323,9.64282922 249.923452,9.77421777 250.945192,10.0339572 L257.391601,11.6727162 C257.943365,11.8129814 258.27695,12.3739811 258.136684,12.9257442 C258.020519,13.3827036 257.609122,13.7026033 257.137629,13.7026033 Z" id="Path" fill="#5B5958"></path>
            <path d="M236.425145,8.12054493 L87.9089072,8.12054493 C87.7121153,8.09621784 87.552584,7.93668651 87.552584,7.73989465 C87.552584,7.55566917 87.693015,7.40181807 87.8764758,7.38505044 C93.120079,6.90580478 96.7587273,6.58390016 98.7924206,6.41933656 C116.768403,4.96474536 132.546245,4.19541495 146.125947,4.11134532 L173.874053,4.11134532 C185.756591,4.18459297 199.417382,4.79207809 214.856425,5.93380068 C218.66728,6.21561471 225.864459,6.83421705 236.447961,7.78960772 C236.475189,7.96834834 236.50691,8.00636467 236.503027,8.04937736 C236.499389,8.08967674 236.465609,8.12054493 236.425145,8.12054493 Z" id="Path" fill="#5B5958"></path>
            <path d="M302.643762,129.844885 C303.799924,129.844885 304.257212,129.749976 304.619591,129.413482 C304.895689,129.154639 304.999226,128.766376 304.999226,128.024362 C304.999226,127.265091 304.869805,126.928596 304.498798,126.68701 C304.205443,126.497193 303.886204,126.428168 302.963001,126.3764 C302.147648,126.323553 302.045729,126.316947 301.952067,126.298781 L301.910376,126.290119 L301.910376,126.290119 C301.651534,126.221095 301.547997,126.057161 301.547997,125.70341 C301.547997,125.151213 301.737814,125.03042 302.635134,125.03042 C303.446173,125.03042 303.575594,125.133957 303.575594,125.789691 L304.843921,125.789691 C304.852549,125.694782 304.852549,125.591245 304.852549,125.556733 C304.852549,125.064933 304.749012,124.71981 304.53331,124.460968 C304.239955,124.115845 303.765411,124.00368 302.591994,124.00368 C301.522112,124.00368 301.056197,124.08996 300.685189,124.348803 C300.365951,124.581761 300.219273,125.004536 300.219273,125.694782 C300.219273,126.514449 300.400463,126.937225 300.849123,127.161554 C301.142477,127.308232 301.409948,127.351372 302.350407,127.411769 C303.394404,127.480793 303.394404,127.480793 303.532453,127.592958 C303.644618,127.670611 303.687759,127.825916 303.687759,128.07613 C303.687759,128.378113 303.627362,128.559302 303.506569,128.654211 C303.359892,128.766376 303.230471,128.79226 302.704158,128.79226 C301.919004,128.79226 301.798211,128.775004 301.660162,128.662839 C301.530741,128.542046 301.478972,128.369485 301.478972,128.058874 L301.478972,127.955337 L300.210645,127.955337 C300.210645,128.671467 300.271042,128.97345 300.452231,129.249548 C300.736958,129.706836 301.237386,129.844885 302.643762,129.844885 Z M304.727442,136.2728 L304.727442,135.177034 L301.966458,135.177034 L301.966458,133.813799 L304.528996,133.813799 L304.528996,132.873339 L301.966458,132.873339 L301.966458,131.61364 L304.692929,131.61364 L304.692929,130.517875 L300.637735,130.517875 L300.637735,136.2728 L304.727442,136.2728 Z M304.749012,142.743854 L304.749012,141.596321 L302.20373,141.596321 L302.20373,136.98893 L300.875007,136.98893 L300.875007,142.743854 L304.749012,142.743854 Z M304.770582,149.214909 L304.770582,148.119144 L302.009599,148.119144 L302.009599,146.755908 L304.572136,146.755908 L304.572136,145.815448 L302.009599,145.815448 L302.009599,144.55575 L304.73607,144.55575 L304.73607,143.459984 L300.680875,143.459984 L300.680875,149.214909 L304.770582,149.214909 Z M302.570423,155.729104 C303.157132,155.729104 303.631676,155.711848 303.821494,155.677336 C304.114848,155.625567 304.425459,155.47889 304.623905,155.306328 C304.977656,154.995718 305.072565,154.676479 305.072565,153.753275 L305.072565,153.572086 L303.761097,153.572086 L303.761097,153.684251 C303.761097,154.04663 303.752469,154.132911 303.683445,154.27096 C303.57128,154.503918 303.286553,154.590198 302.639448,154.590198 C302.026855,154.590198 301.768013,154.512546 301.638591,154.279588 C301.517798,154.070213 301.487198,153.875871 301.483654,153.04417 L301.483286,152.855956 C301.483286,151.630769 301.50917,151.440952 301.69036,151.251134 C301.845665,151.095829 302.113135,151.035432 302.682588,151.035432 C303.286553,151.035432 303.510883,151.095829 303.623048,151.294275 C303.692073,151.423696 303.709329,151.509976 303.717957,151.924124 L305.038052,151.924124 C305.020796,151.389183 305.012168,151.242506 304.977656,151.052689 C304.891375,150.55226 304.675673,150.250278 304.278782,150.069088 C303.959543,149.922411 303.692073,149.887899 302.889662,149.887899 C301.517798,149.887899 301.077767,149.991436 300.629107,150.422839 C300.240844,150.793846 300.111423,151.26839 300.111423,152.338271 C300.111423,153.140682 300.145935,153.899953 300.189075,154.27096 C300.240844,154.693735 300.456545,155.099255 300.741272,155.323585 C301.164047,155.660079 301.474658,155.729104 302.570423,155.729104 Z M303.221843,162.157018 L303.221843,157.549627 L304.852549,157.549627 L304.852549,156.402094 L300.340066,156.402094 L300.340066,157.549627 L301.89312,157.549627 L301.89312,162.157018 L303.221843,162.157018 Z" id="SELECT" fill="#CCCBCC" fill-rule="nonzero"></path>
            <path d="M73.3438908,99.6098336 L73.6443508,98.6272483 L75.7800526,98.6272483 L76.0886331,99.6098336 L77.3716783,99.6098336 L75.6338829,94.1934339 L73.7580383,94.1934339 L72.0446045,99.6098336 L73.3438908,99.6098336 Z M75.5201953,97.7096274 L73.9204491,97.7096274 L74.7162619,95.1354164 L75.5201953,97.7096274 Z M81.363366,99.6098336 L81.363366,98.5298018 L78.9678069,98.5298018 L78.9678069,94.1934339 L77.7172439,94.1934339 L77.7172439,99.6098336 L81.363366,99.6098336 Z M82.8620482,99.6098336 L83.1625082,98.6272483 L85.29821,98.6272483 L85.6067905,99.6098336 L86.8898357,99.6098336 L85.1520403,94.1934339 L83.2761957,94.1934339 L81.5627619,99.6098336 L82.8620482,99.6098336 Z M85.0383527,97.7096274 L83.4386065,97.7096274 L84.2344193,95.1354164 L85.0383527,97.7096274 Z M88.4859643,99.6098336 L88.4859643,97.9938463 L89.7527685,97.9938463 C90.2481213,97.9776052 90.4754964,98.2212214 90.4592554,98.7652975 L90.4592554,99.6098336 L91.7260595,99.6098336 L91.7260595,98.5298018 C91.73418,97.8639176 91.417479,97.5066139 90.7759564,97.4660112 L90.7759564,97.4254085 C91.6042514,97.2386361 91.7747827,96.9625378 91.7747827,95.8337828 C91.7747827,95.0298494 91.5880103,94.6157019 91.1088985,94.3802063 C90.8571618,94.2502777 90.4917375,94.1934339 89.9314203,94.1934339 L87.2354013,94.1934339 L87.2354013,99.6098336 L88.4859643,99.6098336 Z M89.7852506,96.9300556 L88.4859643,96.9300556 L88.4859643,95.2653451 L89.7852506,95.2653451 C90.3861705,95.2653451 90.4998581,95.3952737 90.4998581,96.0449168 C90.4998581,96.7676448 90.3699294,96.9300556 89.7852506,96.9300556 Z M93.6551303,99.6098336 L93.6551303,97.3360826 C93.6551303,96.9544172 93.6470097,96.7108011 93.5901659,95.7850596 L93.5658043,95.2734656 L93.606407,95.2734656 L93.7606973,95.7688185 C93.9630861,96.3928507 94.0564963,96.6743788 94.1433199,96.9232731 L94.2013502,97.0877685 C94.2211174,97.1432558 94.2416831,97.200532 94.2641707,97.2629977 L95.1411889,99.6098336 L96.2374617,99.6098336 L97.1063594,97.2548772 C97.2362881,96.8894529 97.3174935,96.6458367 97.5935918,95.760698 L97.747882,95.2572245 L97.7884847,95.2572245 L97.7641231,95.776939 C97.7191478,96.6389655 97.7087689,96.8644186 97.7074383,97.2389022 L97.7072793,99.6098336 L98.9416013,99.6098336 L98.9416013,94.1934339 L96.919587,94.1934339 L96.2049796,96.2235687 C96.091292,96.5402697 96.0344483,96.7351627 95.8233142,97.4741317 L95.7015061,97.8963998 L95.6527829,97.8963998 C95.4205355,97.1103316 95.3149324,96.765335 95.2270886,96.496325 L95.1802806,96.3549338 C95.1648287,96.3088524 95.1493095,96.2630887 95.1330684,96.2154482 L94.4022199,94.1934339 L92.4208083,94.1934339 L92.4208083,99.6098336 L93.6551303,99.6098336 Z M104.62033,99.6098336 L104.62033,94.1934339 L103.134271,94.1934339 L101.266547,95.8256623 L101.981154,96.6214751 L103.402249,95.2897067 L103.402249,99.6098336 L104.62033,99.6098336 Z" id="ALARM1" fill="#000000" fill-rule="nonzero"></path>
            <path d="M182.173549,99.0124981 C182.449647,98.9637749 182.741986,98.8257257 182.928759,98.6633149 C183.261701,98.3709755 183.351027,98.0705156 183.351027,97.2016179 L183.351027,97.0310865 L182.116705,97.0310865 L182.116705,97.1366536 C182.116705,97.4777162 182.108584,97.5589216 182.04362,97.6888502 C181.938053,97.9081048 181.670075,97.9893102 181.061035,97.9893102 C180.484476,97.9893102 180.24086,97.9162253 180.119052,97.6969708 C180.005365,97.4999123 179.976564,97.3170017 179.973229,96.534225 L179.972882,96.3570818 C179.972882,95.2039652 179.997244,95.0253133 180.167775,94.8466615 C180.313945,94.7004918 180.565682,94.643648 181.101637,94.643648 C181.670075,94.643648 181.881209,94.7004918 181.986776,94.8872642 C182.05174,95.0090723 182.067982,95.0902777 182.076102,95.4800635 L183.318545,95.4800635 C183.302303,94.9765901 183.294183,94.8385409 183.261701,94.6598891 C183.180495,94.1888978 182.977482,93.9046789 182.603937,93.7341476 C182.303477,93.5960984 182.05174,93.5636163 181.29653,93.5636163 C180.005365,93.5636163 179.591217,93.6610628 179.168949,94.0670897 C178.803525,94.4162729 178.681717,94.8629026 178.681717,95.8698494 C178.681717,96.6250596 178.714199,97.339667 178.754802,97.6888502 C178.803525,98.0867567 179.006538,98.468422 179.274516,98.679556 C179.672422,98.996257 179.964762,99.0612214 180.99607,99.0612214 C181.548267,99.0612214 181.994897,99.0449803 182.173549,99.0124981 Z M185.142048,99.0206187 L185.142048,96.8037114 L187.334594,96.8037114 L187.334594,99.0206187 L188.585157,99.0206187 L188.585157,93.604219 L187.334594,93.604219 L187.334594,95.7318003 L185.142048,95.7318003 L185.142048,93.604219 L183.891485,93.604219 L183.891485,99.0206187 L185.142048,99.0206187 Z M190.603554,99.0206187 L190.603554,93.604219 L189.352991,93.604219 L189.352991,99.0206187 L190.603554,99.0206187 Z M192.678794,99.0206187 L192.678794,96.7468677 C192.678794,96.3652023 192.670674,96.1215861 192.61383,95.1958447 L192.589468,94.6842507 L192.630071,94.6842507 L192.784361,95.1796036 C192.98675,95.8036358 193.08016,96.0851638 193.166984,96.3340582 L193.225014,96.4985536 C193.244781,96.5540409 193.265347,96.6113171 193.287835,96.6737828 L194.164853,99.0206187 L195.261126,99.0206187 L196.130023,96.6656623 C196.259952,96.300238 196.341157,96.0566218 196.617256,95.1714831 L196.771546,94.6680096 L196.812149,94.6680096 L196.787787,95.1877241 C196.742812,96.0497506 196.732433,96.2752037 196.731102,96.6496873 L196.730943,99.0206187 L197.965265,99.0206187 L197.965265,93.604219 L195.943251,93.604219 L195.228643,95.6343538 C195.114956,95.9510548 195.058112,96.1459478 194.846978,96.8849168 L194.72517,97.3071849 L194.676447,97.3071849 C194.444199,96.5211167 194.338596,96.1761201 194.250752,95.9071101 L194.203944,95.7657189 C194.188493,95.7196375 194.172973,95.6738738 194.156732,95.6262333 L193.425884,93.604219 L191.444472,93.604219 L191.444472,99.0206187 L192.678794,99.0206187 Z M202.647199,99.0206187 L202.647199,97.9893102 L200.048626,97.9893102 L200.048626,96.706265 L202.460426,96.706265 L202.460426,95.8211262 L200.048626,95.8211262 L200.048626,94.6355275 L202.614717,94.6355275 L202.614717,93.604219 L198.798063,93.604219 L198.798063,99.0206187 L202.647199,99.0206187 Z" id="CHIME" fill="#000000" fill-rule="nonzero"></path>
            <path d="M224.224017,99.0612214 C225.312169,99.0612214 225.742558,98.9718954 226.083621,98.6551944 C226.343478,98.4115782 226.440924,98.046154 226.440924,97.3477876 C226.440924,96.6331801 226.319116,96.3164791 225.969933,96.089104 C225.693835,95.9104521 225.393375,95.8454878 224.524477,95.7967646 C223.647459,95.7399208 223.647459,95.7399208 223.533771,95.7155592 C223.290155,95.6505949 223.192709,95.4963046 223.192709,95.1633625 C223.192709,94.643648 223.371361,94.5299605 224.215897,94.5299605 C224.979227,94.5299605 225.101035,94.6274069 225.101035,95.2445679 L226.294755,95.2445679 C226.302875,95.155242 226.302875,95.0577955 226.302875,95.0253133 C226.302875,94.5624426 226.205429,94.237621 226.002415,93.9940049 C225.726317,93.6691833 225.279687,93.5636163 224.175294,93.5636163 C223.168347,93.5636163 222.729838,93.6448217 222.380655,93.8884379 C222.080195,94.1076924 221.942146,94.5055988 221.942146,95.155242 C221.942146,95.9266932 222.112677,96.3245996 222.534945,96.5357337 C222.811043,96.6737828 223.06278,96.7143855 223.947919,96.7712293 C224.930504,96.8361936 224.930504,96.8361936 225.060433,96.9417606 C225.166,97.0148455 225.206602,97.1610152 225.206602,97.3965108 C225.206602,97.6807297 225.149759,97.851261 225.036071,97.9405869 C224.911827,98.0355973 224.800738,98.0648312 224.41865,98.0697279 L224.280861,98.0705156 C223.541892,98.0705156 223.428204,98.0542745 223.298276,97.9487075 C223.176468,97.8350199 223.127744,97.6726091 223.127744,97.3802697 L223.127744,97.2828233 L221.934025,97.2828233 C221.934025,97.956828 221.990869,98.2410469 222.1614,98.5009042 C222.429378,98.9312927 222.900369,99.0612214 224.224017,99.0612214 Z M229.409424,99.0206187 L229.409424,94.6842507 L230.944206,94.6842507 L230.944206,93.604219 L226.697164,93.604219 L226.697164,94.6842507 L228.158861,94.6842507 L228.158861,99.0206187 L229.409424,99.0206187 Z M233.644728,99.0612214 C234.140081,99.0612214 234.57859,99.0287392 234.814086,98.980016 C235.301318,98.874449 235.666742,98.6389533 235.877876,98.2978907 C236.113372,97.8999842 236.170216,97.53456 236.170216,96.3083586 C236.170216,95.5612689 236.153975,95.2039652 236.105251,94.960349 C235.999684,94.3513086 235.707345,93.9696432 235.203872,93.7503887 C234.887171,93.6123395 234.529867,93.5636163 233.766536,93.5636163 C233.271183,93.5636163 232.816433,93.5960984 232.597179,93.6448217 C232.158669,93.7341476 231.777004,93.9696432 231.56587,94.2782237 C231.297892,94.6598891 231.232928,95.1227598 231.232928,96.5357337 C231.232928,97.1204125 231.249169,97.3965108 231.289772,97.640127 C231.387218,98.2004442 231.606473,98.5496274 232.036861,98.7932436 C232.377924,98.9881365 232.792071,99.0612214 233.644728,99.0612214 Z M233.782777,97.9893102 C233.084411,97.9893102 232.857036,97.9487075 232.718987,97.7862967 C232.548455,97.5832832 232.507853,97.3477876 232.507853,96.4788899 C232.507853,95.2120858 232.540335,95.0171928 232.759589,94.8222999 C232.922,94.6761302 233.108772,94.6355275 233.67721,94.6355275 C234.326853,94.6355275 234.537987,94.6761302 234.676037,94.8385409 C234.87093,95.065916 234.895291,95.2120858 234.895291,96.2921175 C234.895291,97.1204125 234.87905,97.3153054 234.789724,97.5589216 C234.659795,97.8999842 234.456782,97.9893102 233.782777,97.9893102 Z M238.042443,99.0206187 L238.042443,97.4533546 L239.073751,97.4533546 C239.715274,97.4371135 239.885805,97.4371135 239.934528,97.428993 C240.25935,97.4208724 240.55981,97.3071849 240.795306,97.1122919 C241.112007,96.8524347 241.250056,96.3895639 241.250056,95.5693895 C241.250056,94.8791436 241.185091,94.5299605 240.990199,94.2132594 C240.762823,93.8559557 240.340555,93.6367011 239.820841,93.6123395 C239.793356,93.6110902 239.7701,93.6100331 239.747878,93.6091386 L239.681125,93.6069135 C239.65778,93.6063147 239.632276,93.605849 239.60142,93.6054868 L239.489603,93.604681 C239.467226,93.6045886 239.442713,93.6045147 239.415664,93.6044555 L236.79188,93.604219 L236.79188,99.0206187 L238.042443,99.0206187 Z M239.081872,96.3733229 L238.042443,96.3733229 L238.042443,94.6355275 L239.138716,94.6355275 C239.487899,94.6355275 239.544743,94.643648 239.674671,94.6923712 C239.910167,94.7898177 239.975131,94.9765901 239.975131,95.5287868 C239.975131,96.2677559 239.861444,96.3733229 239.081872,96.3733229 Z M242.293988,99.0206187 L242.293988,97.9081048 L241.254559,97.9081048 L241.254559,99.0206187 L242.293988,99.0206187 Z M245.644153,99.0206187 L246.228832,96.7955909 C246.366881,96.2758764 246.383122,96.2109121 246.50493,95.6505949 L246.586135,95.2689295 L246.634859,95.2689295 L246.716064,95.6505949 C246.837872,96.2677559 246.845993,96.2839969 246.967801,96.7955909 L247.528118,99.0206187 L249.338998,99.0206187 L250.662646,93.604219 L249.403963,93.604219 L248.803043,96.1215861 C248.689355,96.600698 248.656873,96.7549882 248.510703,97.5020778 L248.421377,97.9649486 L248.380775,97.9649486 L248.234605,97.323426 C248.1534,96.9255195 248.080315,96.6250596 247.950386,96.1297067 L247.300743,93.604219 L245.944613,93.604219 L245.270608,96.1215861 C245.165041,96.5357337 245.059474,96.917399 245.035112,97.0473276 C245.00263,97.2016179 244.962028,97.3559081 244.929545,97.5020778 L244.823978,97.9649486 L244.775255,97.9649486 L244.69405,97.5020778 C244.54788,96.706265 244.523518,96.600698 244.417951,96.1215861 L243.833273,93.604219 L242.574589,93.604219 L243.857634,99.0206187 L245.644153,99.0206187 Z" id="STOP.W" fill="#000000" fill-rule="nonzero"></path>
            <path d="M128.209077,99.0206187 L128.509537,98.0380334 L130.645239,98.0380334 L130.95382,99.0206187 L132.236865,99.0206187 L130.499069,93.604219 L128.623225,93.604219 L126.909791,99.0206187 L128.209077,99.0206187 Z M130.385382,97.1204125 L128.785636,97.1204125 L129.581448,94.5462015 L130.385382,97.1204125 Z M136.228552,99.0206187 L136.228552,97.9405869 L133.832993,97.9405869 L133.832993,93.604219 L132.58243,93.604219 L132.58243,99.0206187 L136.228552,99.0206187 Z M137.727235,99.0206187 L138.027695,98.0380334 L140.163396,98.0380334 L140.471977,99.0206187 L141.755022,99.0206187 L140.017227,93.604219 L138.141382,93.604219 L136.427948,99.0206187 L137.727235,99.0206187 Z M139.903539,97.1204125 L138.303793,97.1204125 L139.099606,94.5462015 L139.903539,97.1204125 Z M143.351151,99.0206187 L143.351151,97.4046314 L144.617955,97.4046314 C145.113308,97.3883903 145.340683,97.6320065 145.324442,98.1760826 L145.324442,99.0206187 L146.591246,99.0206187 L146.591246,97.9405869 C146.599366,97.2747027 146.282665,96.917399 145.641143,96.8767963 L145.641143,96.8361936 C146.469438,96.6494212 146.639969,96.3733229 146.639969,95.2445679 C146.639969,94.4406345 146.453197,94.026487 145.974085,93.7909914 C145.722348,93.6610628 145.356924,93.604219 144.796607,93.604219 L142.100588,93.604219 L142.100588,99.0206187 L143.351151,99.0206187 Z M144.650437,96.3408407 L143.351151,96.3408407 L143.351151,94.6761302 L144.650437,94.6761302 C145.251357,94.6761302 145.365044,94.8060588 145.365044,95.4557019 C145.365044,96.1784299 145.235116,96.3408407 144.650437,96.3408407 Z M148.520317,99.0206187 L148.520317,96.7468677 C148.520317,96.3652023 148.512196,96.1215861 148.455352,95.1958447 L148.430991,94.6842507 L148.471593,94.6842507 L148.625884,95.1796036 C148.828273,95.8036358 148.921683,96.0851638 149.008506,96.3340582 L149.066537,96.4985536 C149.086304,96.5540409 149.106869,96.6113171 149.129357,96.6737828 L150.006375,99.0206187 L151.102648,99.0206187 L151.971546,96.6656623 L152.000775,96.5831484 L152.000775,96.5831484 L152.056706,96.4227558 C152.149333,96.1536359 152.246395,95.852359 152.458778,95.1714831 L152.613068,94.6680096 L152.653671,94.6680096 L152.62931,95.1877241 C152.584334,96.0497506 152.573955,96.2752037 152.572625,96.6496873 L152.572466,99.0206187 L153.806788,99.0206187 L153.806788,93.604219 L151.784773,93.604219 L151.070166,95.6343538 C150.956478,95.9510548 150.899635,96.1459478 150.688501,96.8849168 L150.566693,97.3071849 L150.517969,97.3071849 C150.285722,96.5211167 150.180119,96.1761201 150.092275,95.9071101 L150.045467,95.7657189 C150.030015,95.7196375 150.014496,95.6738738 149.998255,95.6262333 L149.267406,93.604219 L147.285995,93.604219 L147.285995,99.0206187 L148.520317,99.0206187 Z M160.791337,99.0206187 L160.791337,98.0299129 L157.802978,98.0299129 L157.802978,97.8999842 C157.811099,97.4208724 157.900425,97.3153054 158.412019,97.2097384 C159.703185,96.9336401 159.816872,96.9011579 160.125453,96.7549882 C160.596444,96.5438542 160.783216,96.1215861 160.783216,95.3095322 C160.783216,93.9615227 160.304105,93.5636163 158.704358,93.5636163 C157.624327,93.5636163 157.096492,93.7503887 156.820393,94.2132594 C156.657982,94.5055988 156.6255,94.6842507 156.6255,95.5450279 L157.802978,95.5450279 C157.802978,94.9765901 157.81922,94.8710231 157.949148,94.7167329 C158.046595,94.6030453 158.225246,94.5624426 158.696238,94.5624426 C159.459568,94.5624426 159.581377,94.6598891 159.581377,95.2689295 C159.581377,95.6587154 159.540774,95.8048851 159.410845,95.9023316 C159.264675,96.0078986 159.215952,96.0241397 158.306452,96.2109121 C156.885357,96.4788899 156.6255,96.7306266 156.609259,97.8431405 L156.609259,99.0206187 L160.791337,99.0206187 Z" id="ALARM2" fill="#000000" fill-rule="nonzero"></path>
        </g>
    </g>
</svg>